<?xml version="1.0" encoding="UTF-8"?><svg id="Calque_1" style='stroke-width: 0px; background-color: grey;' xmlns="http://www.w3.org/2000/svg" xmlns:xlink="http://www.w3.org/1999/xlink" viewBox="0 0 1183.18 385.66"><defs><style>.cls-1{fill:none;}.cls-2{fill:#ed1b32;}.cls-3{fill:#fce228;}.cls-4{fill:#30ad4c;}.cls-5{fill:#713795;}.cls-6{fill:#4864af;}.cls-7{fill:#fff;}.cls-8{fill:#f37321;}.cls-9{clip-path:url(#clippath);}</style><clipPath id="clippath"><path class="cls-1" d="M846.92,175.15l-34.84-10.78-8.11-35.58,26.72-24.8,34.88,10.78,8.07,35.58-26.76,24.8h.04ZM758.87,195.17l-34.88-10.78-8.07-35.58,26.76-24.8,34.88,10.78,4.04,17.79,4.04,17.79-26.76,24.8ZM823.84,73.46l-38.25,35.42-49.81-15.4-49.73,46.08,15.05,66.11,64.77,20.02,38.25-35.42,49.81,15.4,49.73-46.08-15.05-66.11-64.77-20.02"/></clipPath></defs><path class="cls-7" d="M775.95,257.18v34.72l-30.33-34.72h-19.89v53.37l-20.71-53.37h-27.91l-20.64,53.18h14.69l-7.04,20.44h10.35l3.08-8.9h27.14l2.97,8.9h42.36v-33.19l30.33,33.19h19.89v-73.62h-24.28ZM684.36,302.12l6.81-20,6.81,20h-13.62Z"/><path class="cls-7" d="M649.79,257.18h-24.28v53.13h0s-20.62-53.13-20.62-53.13h-27.91s-80.91,0-80.91,0v20.44h28.06v53.18h24.29v-53.18h20.64,0s-20.64,53.18-20.64,53.18h25.93l3.08-8.9h27.14l2.97,8.9h41.02s7.93-20.44,7.93-20.44h-6.68v-53.18ZM584.23,302.12l6.81-20,6.81,20h-13.63Z"/><path class="cls-7" d="M501.85,326.14v4.75h-9.64v-10.66c-.61,2.44-1.83,4.69-3.53,6.52-2.85,2.99-7.2,5.09-12.36,5.09-6.45,0-11-4.08-11.07-9.78,0-7.67,6.72-9.85,14.87-11.48,4.41-.88,8.49-1.56,10.46-3.53.88-.88,1.29-1.83,1.29-3.19,0-3.67-2.51-6.32-8.56-6.32-6.45,0-11.34,3.46-11.75,7.88v.75h-4.48v-12.29h4.82v5.37c2.38-4.14,7.33-6.32,12.5-6.32,7.81,0,12.5,4.35,12.5,11.34v19.76c0,1.29.75,2.1,2.04,2.1h2.92ZM492,310.66c-1.77,2.24-5.7,3.06-9.64,3.8-6.11,1.22-11.55,2.44-11.55,7.33,0,3.26,2.85,5.57,6.72,5.57,3.53,0,7.06-1.49,9.71-4.14,2.65-2.72,4.62-6.66,4.75-12.56Z"/><path class="cls-7" d="M812.69,311.29c0-11.27,7.67-19.49,17.25-19.49,5.3,0,9.92,2.72,12.16,7.2v-6.25h4.75v15.35h-4.41v-.54c-.61-6.18-5.37-10.93-11.68-10.93-7.13,0-12.36,6.25-12.36,14.6s5.36,14.6,13.38,14.6c6.72,0,11.88-3.74,14.67-7.74h.34l.07,5.57c-2.85,3.87-8.96,7.06-15.28,7.06-11.21,0-18.88-8.08-18.88-19.42Z"/><path class="cls-7" d="M852.89,311.29c0-11.14,7.74-19.49,18.2-19.49s18.27,8.35,18.27,19.49-7.67,19.42-18.27,19.42-18.2-8.15-18.2-19.42ZM883.72,311.29c0-8.56-5.23-14.6-12.63-14.6s-12.5,6.11-12.5,14.6,5.23,14.6,12.5,14.6,12.63-5.98,12.63-14.6Z"/><path class="cls-7" d="M893.77,325.01h2.92c1.29,0,2.04-.81,2.04-2.1v-23.29c0-1.29-.75-2.1-2.04-2.1h-2.92v-4.75h10.19v7.67c1.97-5.16,7.2-8.62,12.84-8.62s9.78,2.99,11.61,8.56c2.38-5.03,7.54-8.56,13.31-8.56,7.67,0,12.56,4.82,12.56,12.77v18.34c0,1.29.82,2.1,2.11,2.1h2.92v4.75h-16.71v-4.75h4.21c1.29,0,2.04-.81,2.04-2.1v-17.52c0-5.57-3.12-8.96-8.29-8.96-6.52,0-11.21,4.89-11.21,12.29v14.19c0,1.29.75,2.1,2.04,2.1h4.28v4.75h-18.13v-4.75h4.35c1.29,0,2.04-.81,2.04-2.1v-17.32c0-5.7-3.19-9.17-8.35-9.17-6.66,0-11.41,5.23-11.41,13.18v13.31c0,1.29.75,2.1,2.11,2.1h4.21v4.75h-16.71v-4.75Z"/><path class="cls-7" d="M961.88,338.93h2.78c1.22,0,1.97-.82,1.97-2.11v-37.22c0-1.29-.75-2.1-1.97-2.1h-2.78v-4.75h9.71v8.35c2.72-6.32,8.29-9.3,13.58-9.3,9.78,0,16.91,8.22,16.91,19.42s-7.2,19.49-16.98,19.49c-5.03,0-10.46-2.85-13.11-8.83v14.94c0,1.29.75,2.11,1.97,2.11h5.16v4.75h-17.25v-4.75ZM996.45,311.23c0-8.62-5.03-14.6-12.16-14.6s-12.9,6.18-12.9,14.74,5.5,14.53,12.9,14.53,12.16-6.11,12.16-14.67Z"/><path class="cls-7" d="M1044.26,325.01v4.75h-9.64v-10.66c-.61,2.44-1.83,4.69-3.53,6.52-2.85,2.99-7.2,5.09-12.36,5.09-6.45,0-11-4.08-11.07-9.78,0-7.67,6.72-9.85,14.87-11.48,4.41-.88,8.49-1.56,10.46-3.53.88-.88,1.29-1.83,1.29-3.19,0-3.67-2.51-6.32-8.56-6.32-6.45,0-11.34,3.46-11.75,7.88v.75h-4.48v-12.29h4.82v5.37c2.38-4.14,7.33-6.32,12.5-6.32,7.81,0,12.5,4.35,12.5,11.34v19.76c0,1.29.75,2.1,2.04,2.1h2.92ZM1034.41,309.53c-1.77,2.24-5.7,3.06-9.64,3.8-6.11,1.22-11.55,2.44-11.55,7.33,0,3.26,2.85,5.57,6.72,5.57,3.53,0,7.06-1.49,9.71-4.14,2.65-2.72,4.62-6.66,4.75-12.56Z"/><path class="cls-7" d="M1048.4,325.01h2.92c1.29,0,2.04-.81,2.04-2.1v-23.29c0-1.29-.75-2.1-2.04-2.1h-2.92v-4.75h10.19v7.95c1.97-5.16,7.47-8.9,13.72-8.9,7.54,0,12.29,4.82,12.29,12.77v18.34c0,1.29.75,2.1,2.04,2.1h2.92v4.75h-16.71v-4.75h4.21c1.36,0,2.1-.81,2.1-2.1v-17.52c0-5.57-3.12-8.96-8.42-8.96-6.45,0-11.95,4.89-11.95,13.31v13.17c0,1.29.75,2.1,2.11,2.1h4.21v4.75h-16.71v-4.75Z"/><path class="cls-7" d="M1091.45,343.08v-4.82c.95.75,2.78,1.29,4.89,1.29,3.53,0,6.32-1.9,8.76-6.86l.68-1.36-13.45-32.26c-.48-1.02-1.15-1.56-2.31-1.56h-1.02v-4.75h15.69v4.75h-5.57c-1.29,0-1.77.81-1.29,1.97l10.66,26.01,10.53-25.94c.48-1.22-.14-2.04-1.36-2.04h-5.3v-4.75h15.62v4.75h-1.15c-1.09,0-1.83.48-2.24,1.56l-14.87,34.97c-3.19,7.61-8.08,10.39-12.77,10.39-2.31,0-4.48-.61-5.5-1.36Z"/><path id="path14" class="cls-7" d="M131.23,173.31c-9.72,9.48-19.67,13.05-30.33,13.05-19.2,0-33.19-16.34-33.19-35.07s13.99-34.84,33.19-34.84c10.66,0,20.61,3.57,30.33,13.99v42.87ZM158.46,39.1h-45.3v25.12h18.03v38.91c-9.25-6.62-20.85-10.42-34.37-10.42-31.27,0-56.39,26.06-56.39,58.54s25.12,58.78,56.43,58.78c13.52,0,25.12-3.8,34.37-10.66v8.07h45.26v-25.16h-18.03V39.1Z"/><path id="path16" class="cls-7" d="M278.21,173.31c-9.72,9.48-19.67,13.05-30.33,13.05-19.2,0-33.19-16.34-33.19-34.84s13.99-35.07,33.19-35.07c10.66,0,20.61,3.57,30.33,13.05v43.81ZM278.21,95.29v7.84c-9.25-6.62-20.85-10.42-34.37-10.42-31.31,0-56.39,26.1-56.39,58.78s25.12,58.54,56.39,58.54c13.52,0,25.12-3.8,34.37-10.42v7.84h45.26v-25.12h-17.99l-.24-86.99-27.04-.04Z"/><path id="path18" class="cls-7" d="M406,185.62c-13.52,0-21.59-6.39-21.59-21.32v-43.85h39.58v-25.12h-39.58v-34.88h-27.27v34.84h-27.47v25.12h27.51v43.85c0,28.92,16.85,46.71,43.38,46.71,9.72,0,15.64-.94,27.98-4.74l-3.8-23.47c-6.07,1.8-12.38,2.74-18.73,2.82"/><path id="path20" class="cls-7" d="M526.18,173.31c-9.72,9.48-19.67,13.05-30.33,13.05-19.2,0-33.19-16.34-33.19-34.84s13.99-35.07,33.19-35.07c10.66,0,20.61,3.57,30.33,13.05v43.81ZM553.46,95.29h-27.27v7.84c-9.25-6.62-20.85-10.42-34.37-10.42-31.31,0-56.43,26.1-56.43,58.78s25.12,58.54,56.43,58.54c13.52,0,25.12-3.8,34.37-10.42v7.84h45.3v-25.12h-18.03v-87.03h0Z"/><path id="path22" class="cls-7" d="M634.26,95.25v12.11c11.17-8.07,26.57-13.99,46-13.99v27.98c-20.18.71-35.35,4.27-46,8.07v52.86h27.98v25.12h-73v-25.12h17.79v-61.87h-17.79v-25.12l44.75-1.48.27,1.44Z"/><path id="path24" class="cls-7" d="M987.33,185.62c-13.52,0-21.59-6.39-21.59-21.32v-43.85h39.58v-25.12h-39.58v-34.88h-27.27v34.84h-27.51v25.12h27.51v43.85c0,28.92,16.85,46.71,43.38,46.71,9.72,0,15.64-.94,27.98-4.74l-3.8-23.47c-6.07,1.8-12.38,2.74-18.73,2.86"/><path id="path26" class="cls-7" d="M1095.44,141.06l-22.53-3.8c-13.05-2.35-17.09-7.13-17.09-13.05s4.98-11.6,17.56-11.6c13.99,0,20.85,6.62,30.09,16.85h24.65v-34.64h-24.65v7.37c-6.86-6.62-16.85-10.42-30.57-10.42-26.1,0-45.77,11.83-45.77,34.37,0,20.85,17.09,31.07,41.26,35.31l20.38,3.33c10.23,1.88,14.46,6.62,14.46,12.81s-4.04,12.11-18.5,12.11c-17.32,0-27.04-9.01-36.99-20.85l-.24.24-24.88-.24v38.64h24.88v-10.23c8.74,7.37,22.06,13.75,40.32,13.75,27.27,0,43.14-13.99,43.14-35.07,0-22.3-17.79-31.78-35.54-34.84"/><g class="cls-9"><rect class="cls-5" x="697.09" y="192.32" width="239.07" height="22.85" transform="translate(-24.84 185.99) rotate(-12.8)"/><rect class="cls-6" x="692.01" y="170.05" width="239.07" height="22.85" transform="translate(-20.04 184.31) rotate(-12.8)"/><rect class="cls-4" x="686.97" y="147.78" width="239.07" height="22.85" transform="translate(-15.23 182.64) rotate(-12.8)"/><rect class="cls-3" x="681.89" y="125.56" width="239.07" height="22.85" transform="translate(-10.43 180.96) rotate(-12.8)"/><rect class="cls-8" x="676.81" y="103.29" width="239.07" height="22.85" transform="translate(-5.62 179.28) rotate(-12.8)"/><rect class="cls-2" x="671.77" y="81.02" width="239.07" height="22.85" transform="translate(-.82 177.61) rotate(-12.8)"/></g><path class="cls-1" d="M846.92,175.15l-34.84-10.78-8.11-35.58,26.72-24.8,34.88,10.78,8.07,35.58-26.72,24.8ZM758.87,195.17l-34.88-10.78-8.07-35.58,26.76-24.8,34.88,10.78,4.04,17.79,4.04,17.79-26.76,24.8ZM785.6,108.89l-49.81-15.4-49.73,46.08,15.05,66.11,64.77,20.02,38.25-35.42,49.81,15.4,49.73-46.08-15.05-66.11c-21.59-6.67-43.18-13.35-64.77-20.02-9.75,7.83-34.4,31.86-38.25,35.42Z"/></svg>
