<?xml version="1.0" encoding="UTF-8"?><svg id="f457bfd9-2f4d-4953-9627-5e2e5e1a31bb" xmlns="http://www.w3.org/2000/svg" viewBox="0 0 889.66 153.66"><defs><style>.cls-1{fill:#3bad4c;}.cls-2{fill:none;}</style></defs><g id="Layer_2"><rect class="cls-2" y="0" width="889.63" height="153.66"/></g><path class="cls-1" d="M637.11,110h18V42.44h-18V110Zm49.51,1.34c14.51,0,25.83-10.07,25.83-25.08s-11.32-24.91-25.83-24.91-25.83,9.82-25.83,24.91,11.49,25.08,25.83,25.08m0-15.94c-3.94,0-7.71-3.35-7.71-9.14s3.85-9,7.71-9,7.72,3.19,7.72,9-3.78,9.14-7.72,9.14m51.74-43.61h-17.28v10.91h-6.46v14.59h6.46v13.15c0,12.49,6.88,20.88,21.14,20.88,2.93,.04,5.86-.27,8.72-.92v-14.91c-1.41,.26-2.84,.4-4.28,.42-4.7,0-8.3-1.77-8.3-6.55v-12.07h12v-14.59h-12v-10.91Zm63.51,33.8c0-15.85-10.32-24.24-23-24.24-14,0-24.57,10.32-24.57,25.08s9.89,24.91,28,24.91c5.65,.07,11.23-1.13,16.35-3.52v-13.68c-4.19,1.85-8.72,3.53-13.84,3.53-5.61,0-10.81-2.1-13.08-6.63h29.71c.28-1.8,.42-3.63,.42-5.45m-30.78-4.44c1.26-3.78,4.19-6.13,7.72-6.13,3.31-.07,6.05,2.56,6.12,5.88h0v.25h-13.84Zm36.92,28.85h18v-20.3c0-8.47,4.78-11,10.06-11,1.5,0,2.99,.18,4.45,.51v-16.6c-1.26-.35-2.56-.52-3.86-.5-5.19-.07-9.99,2.76-12.45,7.33h-.2l-1.76-6.7h-14.24v47.26Zm45.47-52.9c5.1-.04,9.19-4.21,9.15-9.31s-4.21-9.19-9.31-9.15c-5.07,.04-9.15,4.16-9.15,9.23,0,5.1,4.13,9.23,9.23,9.23h.08m-9,52.9h18V62.7h-17.97l-.03,47.3Zm35.27-52.9c5.1-.02,9.21-4.17,9.19-9.27-.02-5.1-4.17-9.21-9.27-9.19-5.08,.02-9.19,4.15-9.19,9.23,0,5.1,4.13,9.23,9.23,9.23h.04m-8.74,5.6v50.9c0,2.18-1,3.19-3.44,3.19h-3.56v15.85h6.21c11.07,0,19.45-4.7,19.45-19.37V62.7h-18.66Z"/><path class="cls-1" d="M232,59.89c-5.66-.1-10.97,2.77-14,7.55h-.33l-1.77-6.2h-13.9v47.3h18v-27.43c0-3,2.1-5.28,5.54-5.28s4.94,1.67,4.94,5.53v27.18h18v-31.87c0-10.65-6-16.78-16.35-16.78m51.54,46.33c3.19,2.41,7.15,3.19,11.12,3.19,3.1,.12,6.19-.51,9-1.84v-13.13c-.69,.36-1.45,.56-2.22,.58-1.74,0-2.42-1.16-2.42-3.09v-13.74c0-6-1.64-10.43-5.89-13.62-4.06-3.09-10.34-4.64-17.2-4.64-6.06-.05-12.07,1.15-17.66,3.51v14.88c4.36-1.95,9.05-3.03,13.82-3.19,2.51,0,4.93,.39,6.38,1.74,.93,.91,1.42,2.18,1.35,3.48v.65c-2.38-.52-4.81-.78-7.25-.78-4.63,0-9.66,.87-13.33,3.58-3.61,2.67-5.7,6.92-5.61,11.4-.12,4.61,2.19,8.94,6.09,11.4,3.36,2.09,7.26,3.13,11.21,3,4.38,.04,8.68-1.14,12.42-3.41l.19,.03Zm-4.83-10c-1.08,.43-2.23,.66-3.39,.68-2.22,0-4.25-1.06-4.25-3.38-.04-2.52,2.28-3.52,4.8-3.52,.94,.01,1.88,.11,2.8,.29l.04,5.93Zm51.1-45.93h-17.37v11h-6.45v14.54h6.45v13.17c0,12.49,6.88,20.88,21.14,20.88,2.93,.04,5.86-.27,8.72-.92v-14.96c-1.41,.26-2.84,.4-4.28,.42-4.7,0-8.3-1.77-8.3-6.54v-12.05h12v-14.59h-12l.09-10.95Zm19.19,58.28h18V61.24h-18.01v47.33Zm49.25,1.34c14.51,0,25.83-10.07,25.83-25.08s-11.32-24.91-25.83-24.91-25.83,9.82-25.83,24.91,11.49,25.08,25.83,25.08m0-15.94c-3.94,0-7.72-3.35-7.72-9.14s3.86-9,7.72-9,7.63,3.17,7.63,9-3.73,9.17-7.67,9.17m61.61-34c-5.66-.1-10.97,2.76-14,7.55h-.34l-1.76-6.2h-13.84v47.3h17.9v-27.54c0-3,2.09-5.28,5.53-5.28s4.95,1.67,4.95,5.53v27.18h17.95v-31.87c0-10.65-6-16.78-16.36-16.78m51.55,46.33c3.19,2.41,7.15,3.19,11.11,3.19,3.1,.12,6.19-.51,9-1.84v-13.13c-.69,.36-1.45,.56-2.22,.58-1.74,0-2.42-1.16-2.42-3.09v-13.74c0-6-1.64-10.43-5.89-13.62-4.06-3.09-10.34-4.64-17.2-4.64-6.04-.04-12.03,1.16-17.6,3.51v14.88c4.36-1.95,9.05-3.03,13.82-3.19,2.51,0,4.93,.39,6.38,1.74,.93,.91,1.42,2.18,1.35,3.48v.65c-2.38-.52-4.81-.78-7.25-.78-4.64,0-9.66,.87-13.33,3.58-3.61,2.67-5.7,6.92-5.61,11.4-.12,4.61,2.19,8.94,6.09,11.4,3.36,2.09,7.26,3.13,11.21,3,4.36,.04,8.64-1.13,12.37-3.38h.19Zm-3.67-10c-1.08,.43-2.22,.66-3.38,.68-2.23,0-4.26-1.06-4.26-3.38,0-2.51,2.32-3.48,4.84-3.48,.94,.01,1.88,.11,2.8,.29v5.89Zm31.15,12.28h18V40.94h-18V108.5Zm71.23-24.41c0-15.85-10.31-24.24-23-24.24-14,0-24.57,10.32-24.57,25.08s9.9,24.91,28,24.91c5.64,.07,11.23-1.13,16.34-3.52v-13.64c-4.2,1.85-8.73,3.53-13.84,3.53-5.62,0-10.82-2.1-13.09-6.63h29.73c.28-1.8,.42-3.63,.42-5.45m-29.61-4.44c1.25-3.78,4.19-6.12,7.71-6.12,3.28-.1,6.02,2.47,6.12,5.75v.37h-13.83Z"/><path class="cls-1" d="M358.2,57.1c5.1-.04,9.19-4.21,9.15-9.31s-4.21-9.19-9.31-9.15c-5.07,.04-9.15,4.16-9.15,9.23,0,5.1,4.13,9.23,9.23,9.23h.08"/><path class="cls-1" d="M84.83,0C42.4,0,8,34.4,8,76.83s34.4,76.83,76.83,76.83c26.27,.03,47.58-21.24,47.61-47.51h0v-.05c0-26.27-18.29-48.08-47.56-47.56-10.1,.18-18.61-6.69-18.29-18.29s11.55-17.25,22.17-17.81c25.56-1.13,44.42,13.87,55.24,35.56,4.47,9.54,6.8,19.94,6.82,30.47,0,15.42-5.56,28.86-14.27,40.13-.66,.75-.66,1.88,0,2.63,.71,.7,1.85,.7,2.56,0,30.04-29.96,30.11-78.61,.15-108.65C124.84,8.12,105.25,0,84.83,0Zm0,76.83c16.17,0,29.27,13.1,29.27,29.27s-13.1,29.27-29.27,29.27-29.27-13.1-29.27-29.27h0c0-16.16,13.09-29.26,29.25-29.27h.02Z"/></svg>
