<?xml version="1.0" encoding="UTF-8" standalone="no"?>
<!-- Created with Inkscape (http://www.inkscape.org/) -->

<svg
   width="88.345695mm"
   height="88.345695mm"
   viewBox="0 0 88.345694 88.345695"
   version="1.1"
   id="svg1"
   xml:space="preserve"
   inkscape:version="1.3.2 (091e20ef0f, 2023-11-25, custom)"
   sodipodi:docname="bouncer.svg"
   xmlns:inkscape="http://www.inkscape.org/namespaces/inkscape"
   xmlns:sodipodi="http://sodipodi.sourceforge.net/DTD/sodipodi-0.dtd"
   xmlns="http://www.w3.org/2000/svg"
   xmlns:svg="http://www.w3.org/2000/svg"><sodipodi:namedview
     id="namedview1"
     pagecolor="#ffffff"
     bordercolor="#000000"
     borderopacity="0.25"
     inkscape:showpageshadow="2"
     inkscape:pageopacity="0.0"
     inkscape:pagecheckerboard="0"
     inkscape:deskcolor="#d1d1d1"
     inkscape:document-units="mm"
     showguides="false"
     inkscape:zoom="2.8118168"
     inkscape:cx="137.98908"
     inkscape:cy="163.06184"
     inkscape:window-width="1920"
     inkscape:window-height="1051"
     inkscape:window-x="0"
     inkscape:window-y="29"
     inkscape:window-maximized="1"
     inkscape:current-layer="g2" /><defs
     id="defs1" /><g
     inkscape:label="Layer 1"
     inkscape:groupmode="layer"
     id="layer1"
     transform="translate(-36.175188,-104.32715)"><g
       id="tight-bounds"
       transform="matrix(0.26458333,0,0,0.26458333,36.175188,104.32715)"><svg
         viewBox="0 0 333.90455 333.90455"
         height="333.90454"
         width="333.90454"
         version="1.1"
         id="svg20"><g
           id="g1"><svg
             version="1.1"
             id="svg1-3"
             width="100%"
             height="100%" /></g><g
           id="g20"><svg
             viewBox="0 0 333.90455 333.90455"
             height="333.90454"
             width="333.90454"
             version="1.1"
             id="svg19"><g
               id="g2"><path
                 d="M 0,166.952 C 0,74.747 74.747,0 166.952,0 c 92.205,0 166.952,74.747 166.953,166.952 0,92.205 -74.747,166.952 -166.953,166.953 C 74.747,333.905 0,259.158 0,166.952 Z M 166.952,331.45 c 90.85,0 164.498,-73.648 164.498,-164.498 0,-90.85 -73.648,-164.498 -164.498,-164.497 -90.85,0 -164.498,73.648 -164.497,164.497 0,90.85 73.648,164.498 164.497,164.498 z"
                 data-fill-palette-color="tertiary"
                 fill="#130912"
                 stroke="transparent"
                 id="path1" /><circle
                 fill="#130912"
                 stroke="transparent"
                 stroke-width="0"
                 fill-opacity="1"
                 data-fill-palette-color="tertiary"
                 id="ellipse1"
                 r="160.27419"
                 cy="166.95227"
                 cx="166.95227" /></g><g
               transform="translate(69.275077,71.173052)"
               id="g19"><svg
                 viewBox="0 0 195.35439 191.55844"
                 height="191.55844"
                 width="195.35439"
                 version="1.1"
                 id="svg18"><g
                   id="g18"><svg
                     viewBox="0 0 195.35439 191.55844"
                     height="191.55844"
                     width="195.35439"
                     version="1.1"
                     id="svg17"><g
                       id="g17"><svg
                         viewBox="0 0 213.15844 209.01654"
                         height="191.55844"
                         width="195.35439"
                         version="1.1"
                         id="svg16"><g
                           transform="translate(50.930295)"
                           id="g15"><svg
                             viewBox="0 0 111.29785 148.33765"
                             height="148.33765"
                             width="111.29785"
                             version="1.1"
                             id="svg14"><g
                               id="g14"><svg
                                 viewBox="8.9919119 2 42.016842 56"
                                 x="0"
                                 y="0"
                                 height="148.33765"
                                 width="111.29785"
                                 class="icon-icon-0"
                                 data-fill-palette-color="quaternary"
                                 id="icon-0"
                                 version="1.1"
                                 style="display:inline"><path
                                   d="m 43.021,45.8 0.568,2.848 c 0.847,0.087 1.713,0.2 2.6,0.369 a 1,1 0 1 1 -0.369,1.964 29,29 0 0 0 -3.154,-0.42 c -5.741,-0.434 -9.717,1.172 -13.536,3.208 2.569,0.533 4.754,1.2 6.883,1.856 A 45.6,45.6 0 0 0 47.36,57.991 3.17,3.17 0 0 0 49.772,57.051 4.33,4.33 0 0 0 51,53.746 41.3,41.3 0 0 0 49.856,45.279 Z"
                                   fill="#fafafa"
                                   data-fill-palette-color="quaternary"
                                   id="path7" /><path
                                   d="m 18.06,15.079 a 0.23,0.23 0 0 0 -0.057,0.19 l 0.549,4.356 A 1.565,1.565 0 0 0 20.1,21 h 4.2 a 3.78,3.78 0 0 0 3.311,-1.647 2.784,2.784 0 0 1 4.776,0 A 3.78,3.78 0 0 0 35.7,21 h 4.2 a 1.565,1.565 0 0 0 1.548,-1.373 L 42,15.268 A 0.24,0.24 0 0 0 41.942,15.079 0.23,0.23 0 0 0 41.76,15 H 33.742 A 2.8,2.8 0 0 0 32.148,15.463 3.77,3.77 0 0 1 30,16 3.75,3.75 0 0 1 27.854,15.458 2.8,2.8 0 0 0 26.266,15 H 18.24 a 0.23,0.23 0 0 0 -0.18,0.079"
                                   fill="#fafafa"
                                   data-fill-palette-color="quaternary"
                                   id="path8"
                                   style="fill:#ff694a;fill-opacity:1;stroke-width:0.999513;stroke-dasharray:none" /><path
                                   d="m 17.477,49.96 c -1.869,0.259 -3.083,0.532 -3.1,0.535 a 1,1 0 0 1 -0.223,0.025 1,1 0 0 1 -0.221,-1.976 c 0.047,-0.01 1.01,-0.228 2.564,-0.463 l 0.47,-2.281 -6.816,-0.52 a 41.4,41.4 0 0 0 -1.15,8.467 4.32,4.32 0 0 0 1.222,3.3 3.2,3.2 0 0 0 2.423,0.945 c 5.436,-0.345 9.292,-2.509 13.023,-4.6 l 0.129,-0.073 A 54,54 0 0 1 31.535,50.4 C 26.682,49.035 20.837,49.5 17.477,49.96"
                                   fill="#fafafa"
                                   data-fill-palette-color="quaternary"
                                   id="path9" /><path
                                   d="M 26.266,13 A 4.76,4.76 0 0 1 28.989,13.812 1.86,1.86 0 0 0 30,14 1.9,1.9 0 0 0 31.018,13.813 4.8,4.8 0 0 1 33.742,13 H 41 a 11,11 0 0 0 -22,0 z"
                                   fill="#fafafa"
                                   data-fill-palette-color="quaternary"
                                   id="path10" /><path
                                   d="M 36.944,58 Q 36.185,57.772 35.423,57.538 A 61,61 0 0 0 26.35,55.3 52,52 0 0 1 21,58 Z"
                                   fill="#fafafa"
                                   data-fill-palette-color="quaternary"
                                   id="path11"
                                   style="fill:#ff694a;fill-opacity:1" /><path
                                   d="m 37.159,27.582 a 6,6 0 0 0 2.565,-3.989 L 39.824,23 H 35.7 a 5.78,5.78 0 0 1 -5.032,-2.628 0.818,0.818 0 0 0 -1.334,0 A 5.78,5.78 0 0 1 24.3,23 h -4.123 l 0.1,0.595 a 6,6 0 0 0 2.56,3.984 c 0.27,0.184 0.554,0.383 0.852,0.594 C 25.471,29.433 27.688,31 30,31 c 2.312,0 4.529,-1.567 6.312,-2.827 0.298,-0.211 0.582,-0.41 0.847,-0.591"
                                   fill="#fafafa"
                                   data-fill-palette-color="quaternary"
                                   id="path12" /><path
                                   d="m 25.191,31.536 -0.154,1.229 C 26.423,34.854 28.176,36 30,36 c 1.824,0 3.577,-1.146 4.963,-3.235 L 34.809,31.536 A 9.9,9.9 0 0 1 30,33 9.9,9.9 0 0 1 25.191,31.536"
                                   fill="#fafafa"
                                   data-fill-palette-color="quaternary"
                                   id="path13" /><path
                                   d="m 41.247,42.02 a 1,1 0 0 1 1.176,0.785 l 0.2,1.02 7.211,-0.55 A 5,5 0 0 0 50,42 C 50,37.219 40.741,34.757 36.466,34.08 34.72,36.6 32.447,38 30,38 27.553,38 25.28,36.6 23.531,34.081 19.255,34.758 10,37.22 10,42 a 5,5 0 0 0 0.168,1.275 l 3.7,0.283 c 1.6,0.122 2.711,0.207 3.5,0.293 l 0.213,-1.05 a 1.0006899,1.0006899 0 0 1 1.961,0.4 l -0.378,1.864 v 0.028 L 18.6,47.805 c 4.274,-0.475 10.906,-0.683 15.93,1.551 A 23.4,23.4 0 0 1 41.52,48.5 L 40.839,45.087 40.462,43.2 a 1,1 0 0 1 0.785,-1.18"
                                   fill="#fafafa"
                                   data-fill-palette-color="quaternary"
                                   id="path14"
                                   style="fill:#ff694a;fill-opacity:1" /></svg></g></svg></g><g
                           id="g16" /></svg></g></svg></g></svg></g></svg></g><defs
           id="defs20" /></svg><rect
         width="333.90454"
         height="333.90454"
         fill="none"
         stroke="none"
         visibility="hidden"
         id="rect20"
         x="0"
         y="0" /></g></g></svg>
