<?xml version="1.0" encoding="UTF-8" standalone="no"?>
<!-- Created with Inkscape (http://www.inkscape.org/) -->

<svg
   width="88.345695mm"
   height="88.345695mm"
   viewBox="0 0 88.345694 88.345695"
   version="1.1"
   id="svg1"
   xml:space="preserve"
   inkscape:version="1.3.2 (091e20ef0f, 2023-11-25, custom)"
   sodipodi:docname="bouncer.svg"
   xmlns:inkscape="http://www.inkscape.org/namespaces/inkscape"
   xmlns:sodipodi="http://sodipodi.sourceforge.net/DTD/sodipodi-0.dtd"
   xmlns="http://www.w3.org/2000/svg"
   xmlns:svg="http://www.w3.org/2000/svg"><sodipodi:namedview
     id="namedview1"
     pagecolor="#ffffff"
     bordercolor="#000000"
     borderopacity="0.25"
     inkscape:showpageshadow="2"
     inkscape:pageopacity="0.0"
     inkscape:pagecheckerboard="0"
     inkscape:deskcolor="#d1d1d1"
     inkscape:document-units="mm"
     showguides="false"
     inkscape:zoom="2.8118168"
     inkscape:cx="137.98908"
     inkscape:cy="163.06184"
     inkscape:window-width="1920"
     inkscape:window-height="1051"
     inkscape:window-x="0"
     inkscape:window-y="29"
     inkscape:window-maximized="1"
     inkscape:current-layer="g2" /><defs
     id="defs1" /><g
     inkscape:label="Layer 1"
     inkscape:groupmode="layer"
     id="layer1"
     transform="translate(-36.175188,-104.32715)"><g
       id="tight-bounds"
       transform="matrix(0.26458333,0,0,0.26458333,36.175188,104.32715)"><svg
         viewBox="0 0 333.90455 333.90455"
         height="333.90454"
         width="333.90454"
         version="1.1"
         id="svg20"><g
           id="g1"><svg
             version="1.1"
             id="svg1-3"
             width="100%"
             height="100%" /></g><g
           id="g20"><svg
             viewBox="0 0 333.90455 333.90455"
             height="333.90454"
             width="333.90454"
             version="1.1"
             id="svg19"><g
               id="g2"><path
                 d="M 0,166.952 C 0,74.747 74.747,0 166.952,0 c 92.205,0 166.952,74.747 166.953,166.952 0,92.205 -74.747,166.952 -166.953,166.953 C 74.747,333.905 0,259.158 0,166.952 Z M 166.952,331.45 c 90.85,0 164.498,-73.648 164.498,-164.498 0,-90.85 -73.648,-164.498 -164.498,-164.497 -90.85,0 -164.498,73.648 -164.497,164.497 0,90.85 73.648,164.498 164.497,164.498 z"
                 data-fill-palette-color="tertiary"
                 fill="#130912"
                 stroke="transparent"
                 id="path1" /><circle
                 fill="#130912"
                 stroke="transparent"
                 stroke-width="0"
                 fill-opacity="1"
                 data-fill-palette-color="tertiary"
                 id="ellipse1"
                 r="160.27419"
                 cy="166.95227"
                 cx="166.95227" /></g><g
               transform="translate(69.275077,71.173052)"
               id="g19"><svg
                 viewBox="0 0 195.35439 191.55844"
                 height="191.55844"
                 width="195.35439"
                 version="1.1"
                 id="svg18"><g
                   id="g18"><svg
                     viewBox="0 0 195.35439 191.55844"
                     height="191.55844"
                     width="195.35439"
                     version="1.1"
                     id="svg17"><g
                       id="g17"><svg
                         viewBox="0 0 213.15844 209.01654"
                         height="191.55844"
                         width="195.35439"
                         version="1.1"
                         id="svg16"><g
                           transform="translate(0,155.34879)"
                           id="g7"><svg
                             viewBox="0 0 213.15844 53.667746"
                             height="53.667747"
                             width="213.15845"
                             version="1.1"
                             id="svg6"><g
                               id="textblocktransform"><svg
                                 viewBox="0 0 213.15844 53.667746"
                                 height="53.667747"
                                 width="213.15845"
                                 id="textblock"
                                 version="1.1"><g
                                   id="g4"><svg
                                   viewBox="0 0 213.15844 29.698666"
                                   height="29.698666"
                                   width="213.15845"
                                   version="1.1"
                                   id="svg3"><g
                                   id="g3"><svg
                                   width="213.15845"
                                   viewBox="2.35 -35.1 256.93 35.8"
                                   height="29.698666"
                                   data-palette-color="#fafafa"
                                   version="1.1"
                                   id="svg2"><path
                                   d="m 7.3,0.7 v 0 Q 5.35,0.7 3.85,-0.83 2.35,-2.35 2.35,-6.1 v 0 q 0,-2.6 0.98,-5.25 0.97,-2.65 2.65,-5.05 1.67,-2.4 3.77,-4.28 2.1,-1.87 4.4,-2.97 2.3,-1.1 4.45,-1.1 v 0 q 1.05,0 1.95,0.35 v 0 l 0.75,-3.85 q 0.45,-2.25 -1.65,-2.95 v 0 l -1,-0.35 0.15,-0.85 9.2,-2.7 0.45,0.4 -6.05,28.75 q -0.15,0.8 -0.25,1.35 -0.1,0.55 -0.1,1.05 v 0 q 0,1.05 0.95,1.05 v 0 q 0.55,0 1.5,-0.6 0.95,-0.6 1.95,-1.7 v 0 l 0.7,0.75 q -1.2,1.85 -3.2,3.3 -2,1.45 -4.25,1.45 v 0 q -1.6,0 -2.52,-1 -0.93,-1 -0.93,-2.65 v 0 q -0.05,-0.85 0.1,-2 v 0 q -2.05,2.5 -4.5,4.07 Q 9.4,0.7 7.3,0.7 Z m 0.95,-8.6 v 0 q 0,2.5 0.83,3.6 0.82,1.1 2.12,1.1 v 0 q 1.2,0 2.53,-0.88 1.32,-0.87 2.97,-2.77 v 0 -0.1 l 2.95,-14.45 q -1.3,-1.1 -2.95,-1.1 v 0 q -1.25,0 -2.37,0.6 -1.13,0.6 -2.08,1.65 v 0 q -1.15,1.25 -2.07,3.32 -0.93,2.08 -1.43,4.45 -0.5,2.38 -0.5,4.58 z M 35.4,0.7 v 0 q -2.35,0 -3.83,-1.28 -1.47,-1.27 -1.47,-3.87 v 0 q 0,-1.8 0.4,-3.95 0.4,-2.15 0.85,-4.4 v 0 l 3.1,-15.45 Q 34.85,-30.4 32.8,-31 v 0 l -0.85,-0.3 0.15,-0.85 9.3,-2.7 0.45,0.4 -3.3,15.45 q 2.05,-2.6 4.57,-4.18 2.53,-1.57 4.73,-1.57 v 0 q 2.2,0 3.6,1.52 1.4,1.53 1.4,5.13 v 0 q 0,2.8 -1,5.52 -1,2.73 -2.73,5.13 -1.72,2.4 -3.95,4.22 -2.22,1.83 -4.72,2.88 -2.5,1.05 -5.05,1.05 z m 0.4,-4.95 v 0 q 0,1.25 0.57,2.05 0.58,0.8 1.68,0.8 v 0 q 2.65,0 5.1,-3.05 v 0 q 1.05,-1.3 1.87,-3.2 0.83,-1.9 1.3,-4.08 0.48,-2.17 0.48,-4.17 v 0 q 0,-2.55 -0.75,-3.83 Q 45.3,-21 44,-21 v 0 q -1.25,0 -2.68,0.97 -1.42,0.98 -3.02,2.73 v 0 l -1.25,5.7 q -0.6,2.75 -0.93,4.52 -0.32,1.78 -0.32,2.83 z m 24,4.95 v 0 Q 58.25,0.7 57.27,-0.08 56.3,-0.85 56.3,-2.4 v 0 q 0,-1.9 0.6,-4.6 v 0 l 3.35,-15.5 H 56 l 0.2,-1.05 2,-0.2 q 2.55,-0.35 4.2,-2.4 v 0 l 3.9,-4.7 h 1.54 L 66.45,-24 H 72 l -0.3,1.6 -5.61,-0.1 -3.29,16 q -0.21,0.9 -0.3,1.57 -0.1,0.68 -0.1,1.13 v 0 q 0,0.5 0.3,0.8 0.3,0.3 0.7,0.3 v 0 q 1.05,0 3.19,-2.15 v 0 L 67.4,-4.2 Q 66.15,-2.35 64.22,-0.83 62.3,0.7 59.8,0.7 Z m 24.84,-12.3 h -12.5 v -2.1 h 12.5 z m 9.7,12.3 v 0 q -2.35,0 -3.82,-1.28 -1.48,-1.27 -1.48,-3.87 v 0 q 0,-1.8 0.4,-3.95 0.4,-2.15 0.85,-4.4 v 0 l 3.1,-15.45 q 0.4,-2.15 -1.65,-2.75 v 0 l -0.85,-0.3 0.15,-0.85 9.3,-2.7 0.45,0.4 -3.3,15.45 q 2.05,-2.6 4.58,-4.18 2.52,-1.57 4.72,-1.57 v 0 q 2.2,0 3.6,1.52 1.4,1.53 1.4,5.13 v 0 q 0,2.8 -1,5.52 -1,2.73 -2.72,5.13 -1.73,2.4 -3.95,4.22 -2.23,1.83 -4.73,2.88 -2.5,1.05 -5.05,1.05 z m 0.4,-4.95 v 0 q 0,1.25 0.58,2.05 0.57,0.8 1.67,0.8 v 0 q 2.65,0 5.1,-3.05 v 0 q 1.05,-1.3 1.88,-3.2 0.82,-1.9 1.3,-4.08 0.47,-2.17 0.47,-4.17 v 0 q 0,-2.55 -0.75,-3.83 -0.75,-1.27 -2.05,-1.27 v 0 q -1.25,0 -2.67,0.97 -1.43,0.98 -3.03,2.73 v 0 l -1.25,5.7 q -0.6,2.75 -0.92,4.52 -0.33,1.78 -0.33,2.83 z m 28.7,4.95 v 0 q -2.55,0 -4.65,-1 -2.1,-1 -3.35,-3.08 -1.25,-2.07 -1.25,-5.22 v 0 q 0,-3.2 1.07,-6.1 1.08,-2.9 3,-5.18 1.93,-2.27 4.5,-3.57 2.58,-1.3 5.53,-1.3 v 0 q 3.95,0 6.55,2.27 2.6,2.28 2.6,7.03 v 0 q 0,3.15 -1.08,6.05 -1.07,2.9 -2.97,5.17 -1.9,2.28 -4.45,3.6 -2.55,1.33 -5.5,1.33 z m 0.6,-1.4 v 0 q 1.6,0 2.9,-1.38 1.3,-1.37 2.25,-3.62 0.95,-2.25 1.47,-5.03 0.53,-2.77 0.53,-5.52 v 0 q 0,-3.95 -0.93,-5.5 -0.92,-1.55 -2.37,-1.55 v 0 q -1.6,0 -2.98,1.32 -1.37,1.33 -2.37,3.58 -1,2.25 -1.55,4.97 -0.55,2.73 -0.55,5.53 v 0 q 0,4.05 1.02,5.63 1.03,1.57 2.58,1.57 z m 20.45,1.4 v 0 q -1.65,0 -2.86,-0.98 -1.19,-0.97 -1.19,-3.02 v 0 q 0,-1.15 0.25,-2.55 0.25,-1.4 0.55,-2.75 v 0 l 2.14,-9.55 q 0.46,-2.05 -1.44,-2.8 v 0 l -0.85,-0.35 0.1,-0.9 9,-2.6 0.59,0.5 -3.44,15 q -0.31,1.25 -0.5,2.25 -0.21,1 -0.21,1.85 v 0 q 0,1.1 0.5,1.57 0.5,0.48 1.31,0.48 v 0 q 1.19,0 2.62,-0.83 1.43,-0.82 3.43,-2.62 v 0 l 0.04,-0.25 1.71,-8.05 q 0.39,-2.05 0.79,-4.08 0.41,-2.02 0.75,-4.07 v 0 l 5.85,-1.75 0.65,0.5 -3.9,17.85 q -0.14,0.85 -0.27,1.55 -0.12,0.7 -0.12,1.15 v 0 q 0,0.5 0.29,0.77 0.31,0.28 0.66,0.28 v 0 q 0.69,0 1.42,-0.53 0.73,-0.52 1.83,-1.57 v 0 l 0.75,0.75 q -1.25,1.75 -3.13,3.25 -1.87,1.5 -4.28,1.5 v 0 q -1.44,0 -2.47,-1 -1.03,-1 -1.03,-2.9 v 0 q 0,-0.75 0.1,-1.6 v 0 q -2.6,2.6 -5.02,4.05 -2.42,1.45 -4.62,1.45 z m 28.54,-0.7 -5.65,0.4 -0.5,-0.45 3.8,-18.15 q 0.45,-2 -1.5,-2.8 v 0 l -0.75,-0.3 0.1,-0.85 8.85,-2.65 0.55,0.5 -1.1,5.65 q 2.6,-2.75 5.3,-4.43 2.7,-1.67 5.05,-1.67 v 0 q 1.6,0 2.63,0.97 1.02,0.98 1.02,2.98 v 0 q 0,1.1 -0.2,2.23 -0.2,1.12 -0.5,2.32 v 0 L 187.58,-6 q -0.2,0.8 -0.32,1.37 -0.13,0.58 -0.13,0.98 v 0 q 0,1.05 0.85,1.05 v 0 q 1.3,0 3.3,-2.1 v 0 l 0.7,0.7 q -1.25,1.85 -3.25,3.27 -2,1.43 -4.45,1.43 v 0 q -1.55,0 -2.45,-0.75 -0.9,-0.75 -0.9,-2.05 v 0 q 0,-1.05 0.25,-2.13 0.25,-1.07 0.6,-2.32 v 0 l 1.95,-7.9 q 0.4,-1.5 0.65,-2.7 0.25,-1.2 0.25,-2.15 v 0 q 0,-1 -0.42,-1.38 -0.43,-0.37 -1.13,-0.37 v 0 q -1.2,0 -2.87,1.02 -1.68,1.03 -3.78,3.23 v 0 l -1.35,6.15 q -0.55,2.65 -1.05,5.3 -0.5,2.65 -1,5.35 z m 30.2,0.7 v 0 q -3.65,0 -5.97,-2.45 -2.33,-2.45 -2.33,-6.95 v 0 q 0,-3.2 1.13,-6.1 1.12,-2.9 3.07,-5.13 1.95,-2.22 4.5,-3.52 2.55,-1.3 5.4,-1.3 v 0 q 1.75,0 3.23,0.55 1.47,0.55 2.37,1.5 0.9,0.95 0.85,2.25 v 0 q -0.05,1.3 -0.85,2.05 -0.8,0.75 -2,0.75 v 0 q -1.35,0 -2.17,-0.75 -0.83,-0.75 -1.38,-1.85 v 0 l -0.35,-0.8 q -0.65,-1.45 -1.25,-1.65 -0.6,-0.2 -1.75,0.75 v 0 q -1.3,1.15 -2.47,3.02 -1.18,1.88 -1.88,4.18 -0.7,2.3 -0.7,4.75 v 0 q 0,3.55 1.6,5.25 1.6,1.7 4.25,1.7 v 0 q 1.8,0 3.5,-1.12 1.7,-1.13 3.15,-3.03 v 0 l 0.8,0.65 q -1,1.9 -2.65,3.57 -1.65,1.68 -3.7,2.68 -2.05,1 -4.4,1 z m 21.65,0 v 0 q -3.7,0 -6.03,-2.4 -2.32,-2.4 -2.32,-6.95 v 0 q 0,-3.15 1.1,-6.05 1.1,-2.9 3.02,-5.18 1.93,-2.27 4.53,-3.57 2.6,-1.3 5.6,-1.3 v 0 q 3.1,0 4.72,1.4 1.63,1.4 1.63,3.75 v 0 q 0,2.85 -3.78,5.62 -3.77,2.78 -10.92,4.33 v 0 q 0.15,3.25 1.55,4.75 1.4,1.5 3.85,1.5 v 0 q 2.2,0 3.95,-1.15 1.75,-1.15 2.95,-2.7 v 0 l 0.75,0.55 q -1,1.9 -2.58,3.6 -1.57,1.7 -3.57,2.75 -2,1.05 -4.45,1.05 z m 5.4,-23.75 v 0 q -1.15,0 -2.45,0.97 -1.3,0.98 -2.48,2.65 -1.17,1.68 -1.97,3.85 -0.8,2.18 -0.95,4.63 v 0 q 5.6,-1.65 7.87,-4.1 2.28,-2.45 2.28,-5.2 v 0 q 0,-1.45 -0.65,-2.13 -0.65,-0.67 -1.65,-0.67 z M 244.43,0 l -5.65,0.4 -0.5,-0.45 3.75,-18.1 q 0.25,-1.2 -0.15,-1.88 -0.4,-0.67 -1.4,-1.02 v 0 l -0.7,-0.25 0.15,-0.85 8.3,-2.65 0.6,0.55 -1.35,7.85 q 1.1,-2.3 2.5,-4.2 1.4,-1.9 2.92,-3.03 1.53,-1.12 3.03,-1.12 v 0 q 1.5,0 2.42,0.8 0.93,0.8 0.93,2.1 v 0 q 0,1.4 -0.8,2.25 -0.8,0.85 -2.15,0.85 v 0 q -2.1,0 -3.9,-2.1 v 0 q -1.8,1.45 -3.1,3.57 -1.3,2.13 -2.45,4.58 v 0 l -0.4,2.05 q -0.5,2.65 -1.03,5.3 -0.52,2.65 -1.02,5.35 z"
                                   opacity="1"
                                   fill="#fafafa"
                                   class="wordmark-text-0"
                                   data-fill-palette-color="quaternary"
                                   id="text-0" /></svg></g></svg></g><g
                                   transform="translate(0,36.709808)"
                                   id="g6"><svg
                                   viewBox="0 0 213.15844 16.957938"
                                   height="16.957939"
                                   width="213.15845"
                                   version="1.1"
                                   id="svg5"><g
                                   id="g5"><svg
                                   width="213.15845"
                                   viewBox="1.5 -21.6 449.93 35.8"
                                   height="16.957939"
                                   data-palette-color="#fafafa"
                                   version="1.1"
                                   id="svg4"><path
                                   d="m 10.45,-5.3 v 0 Q 10.35,-5.4 10.28,-5.68 10.2,-5.95 10.1,-6.25 v 0 L 9.65,-7.6 9.45,-7.8 Q 9.45,-8 9.35,-8.43 9.25,-8.85 9.13,-9.3 9,-9.75 8.88,-10.1 8.75,-10.45 8.7,-10.55 v 0 Q 8.65,-10.6 8.5,-11.15 8.35,-11.7 8.2,-12.38 8.05,-13.05 7.93,-13.63 7.8,-14.2 7.75,-14.3 v 0 l -0.15,1.7 q -0.1,0.1 -0.1,0.17 0,0.08 -0.1,0.23 v 0 l 0.05,1 -0.3,0.8 -0.2,0.25 q 0,0.15 -0.05,0.42 -0.05,0.28 -0.05,0.48 v 0 0.1 0.2 q 0,0.2 -0.05,0.45 -0.05,0.25 -0.05,0.5 v 0 L 6.5,-7.65 6.4,-6.8 Q 6.35,-6.55 6.33,-6.4 6.3,-6.25 6.3,-6.15 v 0 L 6.1,-5 5.8,-4.95 5.6,-4.7 5.65,-4.55 5.55,-4.35 6,-4.6 6.1,-4.45 v 0.6 l 0.2,0.2 -0.25,0.75 0.1,0.35 L 5.95,-2.3 5.6,-2.25 5.45,-1.7 5,-1.2 5.2,-0.95 H 4.5 L 4.35,-1.6 4.2,-1.8 3.8,-1.55 q 0,0.05 -0.02,0.07 -0.03,0.03 -0.03,0.08 v 0 q 0,0.1 0.03,0.25 0.02,0.15 0.07,0.2 v 0 H 3.6 L 2.75,-1.3 1.85,-1.5 Q 1.7,-1.65 1.65,-2.18 1.6,-2.7 1.5,-2.8 v 0 L 1.6,-3.15 Q 1.65,-3.3 1.7,-3.43 1.75,-3.55 1.75,-3.65 v 0 V -4 q 0,-0.15 0.05,-0.2 v 0 L 2,-4.6 v -0.2 l 0.25,-0.4 v -0.45 q 0,-0.15 0.08,-0.58 0.07,-0.42 0.12,-0.57 v 0 l 0.2,-0.65 V -7.5 q 0,-0.2 0.08,-0.5 0.07,-0.3 0.12,-0.45 v 0 l -0.1,-0.6 q 0,-0.15 0.2,-0.35 v 0 L 3.15,-9.6 3,-9.85 v -0.2 q 0.05,-0.05 0.18,-0.23 0.12,-0.17 0.27,-0.4 0.15,-0.22 0.25,-0.4 0.1,-0.17 0.1,-0.27 v 0 l 0.05,-0.2 -0.3,0.05 q 0.2,-1.2 0.5,-2.25 0.3,-1.05 0.3,-2.5 v 0 l 0.45,-1 0.15,-0.55 q 0,-0.2 0.13,-0.65 Q 5.2,-18.9 5.4,-19.4 5.6,-19.9 5.8,-20.35 6,-20.8 6.15,-21 v 0 l 1.25,-0.15 q 0.5,0.1 1.3,1.27 0.8,1.18 1.45,3.13 v 0 l 0.15,-0.05 q 0,1.05 0.5,1.95 v 0 l 0.3,0.45 0.15,0.9 0.15,0.35 q 0.05,0.35 0.2,0.35 v 0 q 0.25,0.85 0.4,1.52 0.15,0.68 0.55,1.53 v 0 L 12.6,-9.9 q 0.25,-0.45 0.68,-0.78 0.42,-0.32 0.42,-0.82 v 0 l 0.35,-0.9 0.15,-0.15 q 0.1,-0.05 0.13,-0.1 0.02,-0.05 0.07,-0.1 v 0 l 0.45,-0.9 q 0.55,-1.05 0.9,-1.75 0.35,-0.7 0.63,-1.25 0.27,-0.55 0.57,-1.15 0.3,-0.6 0.7,-1.5 v 0 q -0.05,0 -0.05,-0.1 v 0 q 0,-0.55 0.47,-0.98 0.48,-0.42 1.08,-0.52 v 0 q 0.05,0 0.1,0.02 0.05,0.03 0.15,0.03 v 0 q 0.25,0 0.33,-0.18 0.07,-0.17 0.22,-0.17 v 0 l 0.15,-0.1 q 0.05,-0.05 0.05,-0.1 v 0 q 0,-0.1 0.05,-0.15 v 0 l 0.4,0.05 0.8,-0.1 q 0.4,0.25 1,0.55 0.6,0.3 0.6,0.6 v 0 l -0.15,0.2 0.15,0.35 -0.1,0.1 -0.1,0.45 q 0,0.1 0.05,0.28 0.05,0.17 0.1,0.37 v 0 l 0.15,0.5 q 0,0.15 0.18,0.8 0.17,0.65 0.22,0.8 v 0 l -0.2,1.55 v 1.9 l 0.1,0.95 -0.25,0.5 q -0.05,0.15 -0.05,0.45 v 0 l 0.05,0.15 -0.1,0.75 H 23.5 V -10 l -0.3,0.2 0.05,0.2 0.25,-0.1 -0.1,0.35 q -0.05,0.1 -0.05,0.1 v 0 q 0,0.1 0.1,0.15 0.1,0.05 0.15,0.15 v 0 l -0.3,0.85 q 0,0.05 -0.1,0.45 v 0 l -0.15,0.3 0.4,-0.15 0.05,0.25 -0.15,0.3 0.05,0.2 h 0.25 q 0.1,0 0.15,0.05 v 0 l 0.1,0.2 -0.3,0.95 q -0.1,0.1 -0.12,0.4 -0.03,0.3 -0.03,0.45 v 0 l 0.7,1.15 q -0.1,0.25 -0.25,0.4 v 0 l -0.2,0.25 0.35,-0.05 0.1,0.25 -0.2,0.45 q 0.05,0 0.18,0.05 0.12,0.05 0.22,0.05 v 0 0.2 l -0.4,0.25 0.25,2.95 q -0.1,0.1 -0.15,0.25 v 0 l -0.1,0.15 q -0.05,0 -0.27,0.13 -0.23,0.12 -0.5,0.24 -0.28,0.13 -0.5,0.25 -0.23,0.13 -0.23,0.13 v 0 0.1 l -0.2,0.05 -1.7,-0.2 Q 20.4,2.5 20.3,2.45 20.2,2.4 20.2,2.6 v 0 L 20.1,2.4 19.45,2.1 18.9,1.3 l -0.5,-2.1 0.5,-1 q -0.15,-0.7 -0.2,-1.6 -0.05,-0.9 -0.05,-1.75 v 0 -2.05 -0.65 l 0.1,-0.7 -0.2,-0.05 q 0,-0.7 0.05,-1.38 0.05,-0.67 0.05,-1.32 v 0 q 0,-0.55 -0.05,-1 -0.05,-0.45 -0.15,-0.85 v 0 L 17,-10.6 q -0.3,0.85 -0.6,1.13 -0.3,0.27 -0.65,1.12 v 0 q -0.25,0.5 -0.5,0.97 -0.25,0.48 -0.6,0.88 v 0 l -0.7,1.1 q -0.25,0.15 -0.55,0.32 -0.3,0.18 -0.55,0.33 -0.25,0.15 -0.42,0.27 -0.18,0.13 -0.13,0.13 v 0 Q 12,-4.35 11.35,-4.67 10.7,-5 10.45,-5.3 Z m -5.95,-8.35 -0.15,0.3 q -0.1,0.3 -0.18,0.65 -0.07,0.35 -0.12,0.65 v 0 l 0.35,-0.1 z M 6.2,-7 V -7.3 L 6,-7.15 q 0,0.1 -0.07,0.4 -0.08,0.3 -0.08,0.45 v 0 0.05 Q 6.2,-6.45 6.2,-7 Z m 17.3,-4.65 v 0 q 0.2,0 0.2,0.25 v 0 q 0,0.2 -0.2,0.2 v 0 q -0.1,0 -0.1,-0.25 v 0 q 0,-0.15 0.1,-0.2 z M 6.15,-7.9 6,-7.7 5.95,-7.5 6.3,-7.75 Z m 17.5,-2.9 v 0 0.05 q 0,0.15 -0.1,0.15 v 0 q -0.05,0 -0.05,-0.2 v 0 q 0,-0.1 0.05,-0.1 v 0 z m 9.95,9.2 v 0 q 0.9,0.25 0.9,0.35 v 0 l -0.05,0.45 q 0,0.55 0.2,0.95 v 0 q 0.1,0.2 0.2,0.25 v 0 q 0,0.1 -0.43,0.13 Q 34,0.55 33.42,0.6 32.85,0.65 32.27,0.68 31.7,0.7 31.35,0.7 v 0 H 31 Q 29.9,0.7 29.15,0.35 28.4,0 27.95,-0.85 v 0 l -0.2,-0.1 -0.1,-0.65 q -0.1,-0.4 -0.2,-0.75 -0.1,-0.35 -0.1,-0.75 v 0 q 0.05,-0.3 0.25,-0.53 0.2,-0.22 0.37,-0.4 0.18,-0.17 0.28,-0.27 0.1,-0.1 -0.05,-0.1 v 0 q 0,-0.25 0.3,-0.65 0.3,-0.4 0.75,-0.8 0.45,-0.4 0.92,-0.78 0.48,-0.37 0.78,-0.57 v 0 l 0.4,0.1 q 0.1,0 0.52,-0.13 0.43,-0.12 0.68,-0.22 v 0 l 0.7,-0.5 Q 33.6,-8 33.6,-8.3 v 0 l 1.95,-0.9 q 0.05,-0.1 0.17,-0.23 0.13,-0.12 0.13,-0.17 v 0 l -0.4,-1.6 q 0,-0.1 -0.15,-0.1 v 0 q -0.05,0 -0.05,0.02 0,0.03 -0.05,0.03 v 0 h -0.1 q -0.25,0 -0.88,0.1 -0.62,0.1 -1.27,0.25 -0.65,0.15 -1.18,0.25 -0.52,0.1 -0.52,0.1 v 0 q -0.05,0.05 -0.15,0.05 v 0 q -0.3,0 -0.63,-0.3 -0.32,-0.3 -0.57,-0.55 v 0 l -0.5,-0.2 -0.25,-0.2 q 0,-0.1 -0.05,-0.18 Q 29.05,-12 29,-12.1 v 0 l -0.1,-0.2 q 0,-0.25 0.82,-0.45 0.83,-0.2 2.08,-0.35 1.25,-0.15 2.67,-0.23 1.43,-0.07 2.63,-0.07 v 0 h 0.15 q 0.7,0 1.15,0.22 0.45,0.23 0.75,0.55 0.3,0.33 0.5,0.7 0.2,0.38 0.45,0.68 v 0 0.85 q 0,0.55 0.02,0.87 0.03,0.33 0.03,0.63 v 0 q 0,0.3 -0.05,0.62 -0.05,0.33 -0.2,0.88 v 0 q 0,0.25 0.1,0.42 0.1,0.18 0.1,0.38 v 0 0.05 l 0.05,0.35 -0.4,0.45 0.3,0.35 -0.35,0.45 q 0,0.1 -0.08,0.25 -0.07,0.15 -0.07,0.25 v 0 l 0.05,0.05 -0.1,0.8 0.4,0.1 -0.05,0.3 -0.3,0.15 0.1,0.2 -0.05,0.35 q -0.25,0.45 -0.35,1.3 -0.1,0.85 -0.15,1.25 v 0 q -0.05,0.1 -0.38,0.13 -0.32,0.02 -0.7,0.05 -0.37,0.02 -0.7,0.02 -0.32,0 -0.32,0 v 0 Q 36.55,0.25 36.22,0 35.9,-0.25 35.72,-0.63 35.55,-1 35.47,-1.43 35.4,-1.85 35.4,-2.2 v 0 q 0,-0.85 0.27,-1.38 0.28,-0.52 0.28,-1.47 v 0 Q 35.85,-5.45 35.92,-5.88 36,-6.3 35.55,-6.3 v 0 q -0.1,0.1 -0.23,0.22 -0.12,0.13 -0.22,0.18 v 0 q -0.05,-0.05 -0.25,-0.05 v 0 q -0.1,0 -0.45,0.15 -0.35,0.15 -0.75,0.35 -0.4,0.2 -0.73,0.4 -0.32,0.2 -0.37,0.3 v 0 q -0.55,0.35 -1.08,0.6 -0.52,0.25 -0.87,0.6 v 0 l -0.1,0.75 q 0,0.05 -0.05,0.22 -0.05,0.18 -0.05,0.33 v 0 l 0.05,0.05 0.2,-0.15 0.15,0.25 q 0.35,0.05 0.7,0.02 Q 31.85,-2.1 32,-2 v 0 q 0.05,0 0.07,-0.02 0.03,-0.03 0.08,-0.03 v 0 q 0.25,0 0.62,0.25 0.38,0.25 0.68,0.25 v 0 q 0.1,0 0.15,-0.05 z M 44.05,0.2 43.8,0 q -0.4,-0.2 -0.5,-0.5 -0.1,-0.3 -0.1,-0.75 v 0 V -2 l 0.85,-8.7 q 0,-0.05 -0.03,-0.08 Q 44,-10.8 44,-10.9 v 0 q 0,0.05 0.05,-0.35 0.05,-0.4 0.15,-0.9 0.1,-0.5 0.2,-0.93 0.1,-0.42 0.2,-0.42 v 0 q 0.1,0 0.37,0.1 0.28,0.1 0.33,0.1 v 0 q 0.55,0.15 1.27,0.27 0.73,0.13 1.4,0.35 0.68,0.23 1.15,0.68 0.48,0.45 0.48,1.25 v 0 l -0.55,1.1 q -0.25,0.5 -0.43,1.02 -0.17,0.53 -0.22,1.03 v 0 q 0,0.05 0,0.32 0,0.28 -0.03,0.65 -0.02,0.38 -0.02,0.78 0,0.4 0,0.7 v 0 0.8 l 0.1,0.1 q 0,0.05 -0.08,0.17 -0.07,0.13 -0.07,0.28 v 0 l 0.05,0.15 q 0,0.05 -0.1,0.1 -0.1,0.05 -0.15,0.05 v 0 l 0.1,0.35 q -0.05,0 -0.05,0.05 v 0 l -0.1,0.15 Q 48.05,-3 48.02,-3.03 48,-3.05 48,-3.1 v 0 l -0.15,-0.05 -0.15,0.1 q -0.05,0.1 -0.1,0.6 -0.05,0.5 -0.15,0.6 v 0 h 0.1 q 0.15,0 0.42,-0.42 0.28,-0.43 0.33,-0.43 v 0 q -0.1,0.55 -0.13,1.27 -0.02,0.73 -0.02,1.28 v 0 l 0.15,0.4 -0.55,-0.15 -0.2,0.15 q -0.1,0 -0.4,0.1 v 0 L 46.95,0.45 46.2,0.1 H 45.95 L 45.2,0.45 44.8,0.4 V 0.2 Z M 44,-17.5 v 0 q 0,-1.05 0.32,-1.85 0.33,-0.8 0.78,-1.7 v 0 l 0.25,0.15 q 0.05,0 0.17,0.07 0.13,0.08 0.28,0.08 v 0 h 1.3 q 0.25,0 0.55,0.35 0.3,0.35 0.4,0.35 v 0 q 0.05,0 0.12,-0.03 0.08,-0.02 0.18,-0.02 v 0 q 0.35,0 0.67,0.22 0.33,0.23 0.55,0.58 0.23,0.35 0.35,0.7 0.13,0.35 0.13,0.65 v 0 q 0,0.35 -0.48,0.75 -0.47,0.4 -1.1,0.72 -0.62,0.33 -1.3,0.55 -0.67,0.23 -1.07,0.23 v 0 q -0.8,0 -1.43,-0.55 Q 44.05,-16.8 44,-17.5 Z m 2.95,14.7 v 0 q 0,0.1 0.02,0.35 0.03,0.25 0.13,0.35 v 0 l 0.1,-0.6 0.25,-0.1 v -0.25 q -0.15,0 -0.33,0.1 -0.17,0.1 -0.17,0.15 z M 46.9,-0.25 47,0.1 47.4,0.05 V -0.2 Z m 0.8,0.7 v 0 q 0.15,0.1 0.15,0.25 v 0 q 0,0.2 -0.15,0.2 v 0 q -0.15,0 -0.15,-0.2 v 0 q 0,-0.25 0.15,-0.25 z m 0.55,-4.8 -0.35,0.3 v 0.15 q 0,0.1 0.1,0.1 v 0 l 0.25,-0.25 z m 5.29,-0.8 -0.15,-0.75 0.55,-1.35 q 0,-0.1 -0.02,-0.15 -0.03,-0.05 -0.03,-0.15 v 0 q 0,-0.45 0.2,-1.03 0.2,-0.57 0.5,-1.22 0.3,-0.65 0.68,-1.28 0.37,-0.62 0.72,-1.22 v 0 q -0.05,-0.05 -0.05,-0.1 v 0 q 0,-0.2 0.18,-0.38 0.17,-0.17 0.32,-0.17 v 0 q 0.45,0 1,0.2 0.55,0.2 1.03,0.52 0.47,0.33 0.82,0.75 0.35,0.43 0.35,0.93 v 0 l -0.1,0.4 3.9,-1.7 h 0.9 q 0,-0.1 0.13,-0.13 0.12,-0.02 0.17,-0.02 v 0 q 0.3,0 0.43,0.1 0.12,0.1 0.37,0.35 v 0 l 0.6,0.1 q 0.2,0.1 0.63,0.3 0.42,0.2 0.42,0.35 v 0 0.85 h -0.2 l -0.05,0.15 q 0,0.05 0.05,0.05 v 0 h 0.1 q 0.05,0.05 0.1,0.05 v 0 0.15 l -0.1,0.15 q 0,0.4 0.1,0.45 v 0 q 0,0.5 -0.15,1.25 -0.15,0.75 -0.55,1 v 0 h 0.35 q -0.1,0.1 -0.1,0.25 v 0 q 0,0.15 0.05,0.17 0.05,0.03 0.05,0.08 v 0 q 0,0.4 -0.12,0.8 -0.13,0.4 -0.13,0.6 v 0 l -0.2,0.75 q -0.1,0.4 -0.22,0.65 -0.13,0.25 -0.13,0.8 v 0 l 0.1,0.25 q 0,0.15 -0.15,0.4 -0.15,0.25 -0.15,0.5 v 0 q 0,0.5 0.1,0.6 v 0 0.1 l -0.25,0.1 -0.15,0.3 q -0.3,0.1 -0.37,0.17 -0.08,0.08 -0.13,0.1 -0.05,0.03 -0.2,0.05 Q 64.59,0 64.09,0 V 0 Q 63.59,0 63.32,-0.4 63.04,-0.8 62.89,-1.33 62.74,-1.85 62.72,-2.43 62.69,-3 62.69,-3.3 v 0 q 0,-0.75 0,-1.28 0,-0.52 0.03,-1 0.02,-0.47 0.07,-1 0.05,-0.52 0.15,-1.27 v 0 q 0,-0.2 -0.07,-0.68 Q 62.79,-9 62.79,-9.1 v 0 l -0.55,0.2 q -1.15,0.5 -2.3,1.25 -1.15,0.75 -1.35,1.8 v 0 l -0.1,0.45 0.15,0.1 q -0.1,0.25 -0.12,0.37 -0.03,0.13 -0.03,0.58 v 0 l 0.4,-0.3 v 0.05 q 0,0.7 -0.42,1.02 -0.43,0.33 -0.43,0.78 v 0 l 0.35,1.35 -0.1,1.35 h -0.5 q -0.1,0.05 -0.27,0.18 -0.18,0.12 -0.33,0.12 v 0 l -2.4,-0.25 -1.65,-0.8 0.45,-0.6 q -0.1,0.1 -0.15,0.1 v 0 h -0.05 q -0.15,0 -0.2,-0.05 v 0 q 0,-0.25 0.1,-0.35 v 0 l 0.1,0.2 0.85,-0.95 q 0,-0.2 -0.15,-0.3 v 0 q -0.15,0.15 -0.2,0.17 -0.05,0.03 -0.55,0.03 v 0 q 0,-0.5 0.18,-0.83 0.17,-0.32 0.17,-0.57 v 0 h -0.1 q -0.1,0 -0.25,-0.2 v 0 q -0.1,0 -0.17,0.05 -0.08,0.05 -0.13,0.05 v 0 q 0.05,-0.15 0.28,-0.53 0.22,-0.37 0.22,-0.52 z m 0.55,2.05 v 0 q 0.25,0 0.23,-0.23 -0.03,-0.22 0.17,-0.82 v 0 q -0.15,0 -0.3,0.32 -0.15,0.33 -0.15,0.58 v 0 q 0,0.1 0.05,0.15 z m -0.5,-1.2 -0.05,-0.25 h -0.15 v 0.05 q 0,0.05 0.2,0.2 z m 0,0.9 0.1,0.1 v -0.3 q -0.05,0 -0.05,0.05 v 0 q 0,0.05 -0.02,0.07 -0.03,0.03 -0.03,0.08 z m 0.25,-1.5 0.1,0.1 v -0.3 z m 30.85,-7.2 h 0.05 l -0.1,0.25 0.05,-0.25 -1.25,0.5 q -0.05,0.05 -0.15,0.05 v 0 q -0.1,0 -0.1,-0.1 v 0 l -0.25,0.05 q -0.4,0.05 -1.02,0.1 -0.63,0.05 -1.23,0.1 -0.6,0.05 -1.02,0.17 -0.43,0.13 -0.43,0.33 v 0 0.05 l 0.1,0.1 q -0.1,0.1 -0.15,0.1 -0.05,0 -0.05,0.1 v 0 q 0,0.1 0.1,0.25 v 0 q 0,0.25 -0.15,0.25 -0.15,0 -0.15,0.4 v 0 q 0,0.2 0.3,0.2 v 0 q -0.3,0.15 -0.3,0.65 v 0 q 0,0.4 0.15,0.45 v 0 l 0.15,0.5 q -0.35,0.35 -0.35,0.65 v 0 q 0,0.25 0.05,0.35 v 0 q 0,0.4 -0.02,0.55 -0.03,0.15 -0.03,0.17 0,0.03 -0.02,0.05 -0.03,0.03 -0.03,0.18 v 0 l 0.05,0.05 q 0,0.4 -0.17,0.97 -0.18,0.58 -0.28,0.68 v 0 h -0.1 V -4 h 0.25 q -0.1,0.1 -0.2,0.15 -0.1,0.05 -0.1,0.15 v 0 q 0,0.05 0.05,0.1 v 0 h 0.35 l -0.35,1.6 0.2,0.1 q 0.3,0.1 0.85,0.1 v 0 q 0.45,-0.05 0.8,-0.22 0.35,-0.18 0.75,-0.23 v 0 h 0.15 q 0.2,0 0.47,-0.02 0.28,-0.03 0.53,-0.03 v 0 h 2.35 q 0.05,0 0.25,0.07 0.2,0.08 0.43,0.18 0.22,0.1 0.37,0.2 0.15,0.1 0.15,0.1 v 0 q 0,0.25 -0.3,0.57 -0.3,0.33 -0.55,0.53 v 0 l -2.25,0.7 -2.9,0.3 q -0.4,0 -1.1,0.38 -0.7,0.37 -1.4,0.37 v 0 -0.2 L 75.59,0.75 Q 75.04,0.35 74.79,0.25 74.54,0.15 74.39,0.13 74.24,0.1 74.14,0.05 74.04,0 73.79,-0.25 v 0 q 0,-0.15 0,-0.63 0,-0.47 0.02,-0.97 0.03,-0.5 0.08,-0.93 0.05,-0.42 0.15,-0.52 v 0 l 0.15,2.15 0.2,0.3 q 0,-0.7 0.03,-2.1 0.02,-1.4 0.17,-3.25 v 0 l -0.05,0.1 q -0.05,0.05 -0.07,-0.2 -0.03,-0.25 -0.03,-0.55 v 0 q 0,-0.55 0.05,-0.55 v 0 h 0.05 l 0.15,0.55 0.4,-2.8 h -0.2 v -0.5 -0.35 q -0.3,0.1 -0.7,0.1 -0.4,0 -0.75,0.25 v 0 l -1.05,0.05 -0.4,-0.05 -0.25,0.1 -0.15,-0.15 q -0.4,0 -0.95,-0.7 -0.55,-0.7 -0.55,-1.4 v 0 q 0,-0.3 0.63,-0.48 0.62,-0.17 1.47,-0.32 0.85,-0.15 1.73,-0.28 0.87,-0.12 1.42,-0.27 v 0 q 0.15,-0.45 0.22,-1.2 0.08,-0.75 0.11,-1.4 0.02,-0.65 0.05,-1.05 0.02,-0.4 0.02,-0.2 v 0 q 0,-0.05 0.1,-0.38 0.1,-0.32 0.22,-0.69 0.13,-0.38 0.23,-0.71 0.1,-0.32 0.1,-0.42 v 0 q -0.05,-0.05 -0.05,-0.15 v 0 q 0,-0.15 0.1,-0.4 0.1,-0.25 0.1,-0.4 v 0 l 0.1,-0.05 q 0.35,0 1.03,0.2 0.67,0.2 1.32,0.52 0.65,0.33 1.15,0.8 0.5,0.48 0.5,1.03 v 0 q 0,0.55 -0.5,1.3 -0.5,0.75 -0.5,1.6 v 0 l -0.3,1.15 q 1.35,0 2.78,-0.13 1.42,-0.12 2.12,-0.12 v 0 q 0.4,0 0.68,0.15 0.27,0.15 0.27,0.7 v 0 z m -10.75,6.95 0.1,1.4 -0.25,0.05 q 0,-0.1 0.02,-0.7 0.03,-0.6 0.13,-0.75 z m 2.3,3 h -0.25 l -0.25,0.55 v 0.5 z m 0,-1 v 0 q -0.2,0 -0.2,0.25 v 0 q 0,0.25 0.2,0.25 v 0 q 0.25,0 0.25,-0.25 v 0 q 0,-0.25 -0.25,-0.25 z m 18.7,1.55 v 0 q 0.9,0.25 0.9,0.35 v 0 l -0.05,0.45 q 0,0.55 0.2,0.95 v 0 q 0.1,0.2 0.2,0.25 v 0 q 0,0.1 -0.43,0.13 -0.42,0.02 -1,0.07 -0.57,0.05 -1.15,0.08 -0.57,0.02 -0.92,0.02 v 0 h -0.35 q -1.1,0 -1.85,-0.35 -0.75,-0.35 -1.2,-1.2 v 0 l -0.2,-0.1 -0.1,-0.65 q -0.1,-0.4 -0.2,-0.75 -0.1,-0.35 -0.1,-0.75 v 0 q 0.05,-0.3 0.25,-0.53 0.2,-0.22 0.37,-0.4 0.18,-0.17 0.28,-0.27 0.1,-0.1 -0.05,-0.1 v 0 q 0,-0.25 0.3,-0.65 0.3,-0.4 0.75,-0.8 0.45,-0.4 0.92,-0.78 0.48,-0.37 0.78,-0.57 v 0 l 0.4,0.1 q 0.1,0 0.52,-0.13 0.43,-0.12 0.68,-0.22 v 0 l 0.7,-0.5 Q 94.94,-8 94.94,-8.3 v 0 l 1.95,-0.9 q 0.05,-0.1 0.17,-0.23 0.13,-0.12 0.13,-0.17 v 0 l -0.4,-1.6 q 0,-0.1 -0.15,-0.1 v 0 q -0.05,0 -0.05,0.02 0,0.03 -0.05,0.03 v 0 h -0.1 q -0.25,0 -0.88,0.1 -0.62,0.1 -1.27,0.25 -0.65,0.15 -1.18,0.25 -0.52,0.1 -0.52,0.1 v 0 q -0.05,0.05 -0.15,0.05 v 0 q -0.3,0 -0.63,-0.3 -0.32,-0.3 -0.57,-0.55 v 0 l -0.5,-0.2 -0.25,-0.2 q 0,-0.1 -0.05,-0.18 -0.05,-0.07 -0.1,-0.17 v 0 l -0.1,-0.2 q 0,-0.25 0.82,-0.45 0.83,-0.2 2.08,-0.35 1.25,-0.15 2.67,-0.23 1.43,-0.07 2.63,-0.07 v 0 h 0.15 q 0.7,0 1.15,0.22 0.45,0.23 0.75,0.55 0.3,0.33 0.5,0.7 0.2,0.38 0.45,0.68 v 0 0.85 q 0,0.55 0.02,0.87 0.03,0.33 0.03,0.63 v 0 q 0,0.3 -0.05,0.62 -0.05,0.33 -0.2,0.88 v 0 q 0,0.25 0.1,0.42 0.1,0.18 0.1,0.38 v 0 0.05 l 0.05,0.35 -0.4,0.45 0.3,0.35 -0.35,0.45 q 0,0.1 -0.08,0.25 -0.07,0.15 -0.07,0.25 v 0 l 0.05,0.05 -0.1,0.8 0.4,0.1 -0.05,0.3 -0.3,0.15 0.1,0.2 -0.05,0.35 q -0.25,0.45 -0.35,1.3 -0.1,0.85 -0.15,1.25 v 0 q -0.05,0.1 -0.38,0.13 -0.32,0.02 -0.7,0.05 -0.37,0.02 -0.7,0.02 -0.32,0 -0.32,0 v 0 Q 97.89,0.25 97.56,0 97.24,-0.25 97.06,-0.63 96.89,-1 96.81,-1.43 96.74,-1.85 96.74,-2.2 v 0 q 0,-0.85 0.27,-1.38 0.28,-0.52 0.28,-1.47 v 0 q -0.1,-0.4 -0.03,-0.83 0.08,-0.42 -0.37,-0.42 v 0 q -0.1,0.1 -0.23,0.22 -0.12,0.13 -0.22,0.18 v 0 q -0.05,-0.05 -0.25,-0.05 v 0 q -0.1,0 -0.45,0.15 -0.35,0.15 -0.75,0.35 -0.4,0.2 -0.73,0.4 -0.32,0.2 -0.37,0.3 v 0 q -0.55,0.35 -1.08,0.6 -0.52,0.25 -0.87,0.6 v 0 l -0.1,0.75 q 0,0.05 -0.05,0.22 -0.05,0.18 -0.05,0.33 v 0 l 0.05,0.05 0.2,-0.15 0.15,0.25 q 0.35,0.05 0.7,0.02 0.35,-0.02 0.5,0.08 v 0 q 0.05,0 0.07,-0.02 0.03,-0.03 0.08,-0.03 v 0 q 0.25,0 0.62,0.25 0.38,0.25 0.68,0.25 v 0 q 0.1,0 0.15,-0.05 z M 105.39,0.2 105.14,0 q -0.41,-0.2 -0.5,-0.5 -0.11,-0.3 -0.11,-0.75 v 0 V -2 l 0.86,-8.7 q 0,-0.05 -0.03,-0.08 -0.03,-0.02 -0.03,-0.12 v 0 q 0,0.05 0.06,-0.35 0.05,-0.4 0.14,-0.9 0.11,-0.5 0.2,-0.93 0.1,-0.42 0.21,-0.42 v 0 q 0.09,0 0.37,0.1 0.27,0.1 0.33,0.1 v 0 q 0.55,0.15 1.27,0.27 0.73,0.13 1.4,0.35 0.67,0.23 1.15,0.68 0.48,0.45 0.48,1.25 v 0 l -0.55,1.1 q -0.25,0.5 -0.43,1.02 -0.18,0.53 -0.23,1.03 v 0 q 0,0.05 0,0.32 0,0.28 -0.02,0.65 -0.02,0.38 -0.02,0.78 0,0.4 0,0.7 v 0 0.8 l 0.09,0.1 q 0,0.05 -0.07,0.17 -0.07,0.13 -0.07,0.28 v 0 l 0.05,0.15 q 0,0.05 -0.11,0.1 -0.1,0.05 -0.14,0.05 v 0 l 0.09,0.35 q -0.05,0 -0.05,0.05 v 0 l -0.09,0.15 q 0,-0.05 -0.03,-0.08 -0.03,-0.02 -0.03,-0.07 v 0 l -0.14,-0.05 -0.16,0.1 q -0.05,0.1 -0.09,0.6 -0.05,0.5 -0.16,0.6 v 0 h 0.11 q 0.14,0 0.42,-0.42 0.27,-0.43 0.33,-0.43 v 0 q -0.11,0.55 -0.13,1.27 -0.03,0.73 -0.03,1.28 v 0 l 0.16,0.4 -0.56,-0.15 -0.19,0.15 q -0.11,0 -0.41,0.1 v 0 l -0.2,0.1 -0.75,-0.35 h -0.25 L 106.53,0.45 106.14,0.4 V 0.2 Z m -0.06,-17.7 v 0 q 0,-1.05 0.33,-1.85 0.32,-0.8 0.78,-1.7 v 0 l 0.25,0.15 q 0.04,0 0.17,0.07 0.12,0.08 0.28,0.08 v 0 h 1.3 q 0.25,0 0.54,0.35 0.3,0.35 0.41,0.35 v 0 q 0.05,0 0.12,-0.03 0.07,-0.02 0.18,-0.02 v 0 q 0.34,0 0.67,0.22 0.33,0.23 0.55,0.58 0.23,0.35 0.35,0.7 0.13,0.35 0.13,0.65 v 0 q 0,0.35 -0.48,0.75 -0.47,0.4 -1.1,0.72 -0.62,0.33 -1.3,0.55 -0.68,0.23 -1.07,0.23 v 0 q -0.8,0 -1.43,-0.55 -0.62,-0.55 -0.68,-1.25 z m 2.95,14.7 v 0 q 0,0.1 0.03,0.35 0.02,0.25 0.13,0.35 v 0 l 0.09,-0.6 0.25,-0.1 v -0.25 q -0.14,0 -0.32,0.1 -0.18,0.1 -0.18,0.15 z m -0.05,2.55 0.1,0.35 0.4,-0.05 V -0.2 Z m 0.8,0.7 v 0 q 0.16,0.1 0.16,0.25 v 0 q 0,0.2 -0.16,0.2 v 0 q -0.14,0 -0.14,-0.2 v 0 q 0,-0.25 0.14,-0.25 z m 0.55,-4.8 -0.35,0.3 v 0.15 q 0,0.1 0.1,0.1 v 0 l 0.25,-0.25 z m 5.3,-0.8 -0.15,-0.75 0.55,-1.35 q 0,-0.1 -0.02,-0.15 -0.03,-0.05 -0.03,-0.15 v 0 q 0,-0.45 0.2,-1.03 0.2,-0.57 0.5,-1.22 0.3,-0.65 0.68,-1.28 0.37,-0.62 0.72,-1.22 v 0 q -0.05,-0.05 -0.05,-0.1 v 0 q 0,-0.2 0.18,-0.38 0.17,-0.17 0.32,-0.17 v 0 q 0.45,0 1,0.2 0.55,0.2 1.03,0.52 0.47,0.33 0.82,0.75 0.35,0.43 0.35,0.93 v 0 l -0.1,0.4 3.9,-1.7 h 0.9 q 0,-0.1 0.13,-0.13 0.12,-0.02 0.17,-0.02 v 0 q 0.3,0 0.43,0.1 0.12,0.1 0.37,0.35 v 0 l 0.6,0.1 q 0.2,0.1 0.63,0.3 0.42,0.2 0.42,0.35 v 0 0.85 h -0.2 l -0.05,0.15 q 0,0.05 0.05,0.05 v 0 h 0.1 q 0.05,0.05 0.1,0.05 v 0 0.15 l -0.1,0.15 q 0,0.4 0.1,0.45 v 0 q 0,0.5 -0.15,1.25 -0.15,0.75 -0.55,1 v 0 h 0.35 q -0.1,0.1 -0.1,0.25 v 0 q 0,0.15 0.05,0.17 0.05,0.03 0.05,0.08 v 0 q 0,0.4 -0.12,0.8 -0.13,0.4 -0.13,0.6 v 0 l -0.2,0.75 q -0.1,0.4 -0.22,0.65 -0.13,0.25 -0.13,0.8 v 0 l 0.1,0.25 q 0,0.15 -0.15,0.4 -0.15,0.25 -0.15,0.5 v 0 q 0,0.5 0.1,0.6 v 0 0.1 l -0.25,0.1 -0.15,0.3 q -0.3,0.1 -0.37,0.17 -0.08,0.08 -0.13,0.1 -0.05,0.03 -0.2,0.05 Q 125.93,0 125.43,0 v 0 q -0.5,0 -0.77,-0.4 -0.28,-0.4 -0.43,-0.93 -0.15,-0.52 -0.17,-1.1 -0.03,-0.57 -0.03,-0.87 v 0 q 0,-0.75 0,-1.28 0,-0.52 0.03,-1 0.02,-0.47 0.07,-1 0.05,-0.52 0.15,-1.27 v 0 q 0,-0.2 -0.07,-0.68 -0.08,-0.47 -0.08,-0.57 v 0 l -0.55,0.2 q -1.15,0.5 -2.3,1.25 -1.15,0.75 -1.35,1.8 v 0 l -0.1,0.45 0.15,0.1 q -0.1,0.25 -0.12,0.37 -0.03,0.13 -0.03,0.58 v 0 l 0.4,-0.3 v 0.05 q 0,0.7 -0.42,1.02 -0.43,0.33 -0.43,0.78 v 0 l 0.35,1.35 -0.1,1.35 h -0.5 q -0.1,0.05 -0.27,0.18 -0.18,0.12 -0.33,0.12 v 0 l -2.4,-0.25 -1.65,-0.8 0.45,-0.6 q -0.1,0.1 -0.15,0.1 v 0 h -0.05 q -0.15,0 -0.2,-0.05 v 0 q 0,-0.25 0.1,-0.35 v 0 l 0.1,0.2 0.85,-0.95 q 0,-0.2 -0.15,-0.3 v 0 q -0.15,0.15 -0.2,0.17 -0.05,0.03 -0.55,0.03 v 0 q 0,-0.5 0.18,-0.83 0.17,-0.32 0.17,-0.57 v 0 h -0.1 q -0.1,0 -0.25,-0.2 v 0 q -0.1,0 -0.17,0.05 -0.08,0.05 -0.13,0.05 v 0 q 0.05,-0.15 0.28,-0.53 0.22,-0.37 0.22,-0.52 z m 0.55,2.05 v 0 q 0.25,0 0.23,-0.23 -0.03,-0.22 0.17,-0.82 v 0 q -0.15,0 -0.3,0.32 -0.15,0.33 -0.15,0.58 v 0 q 0,0.1 0.05,0.15 z m -0.5,-1.2 -0.05,-0.25 h -0.15 v 0.05 q 0,0.05 0.2,0.2 z m 0,0.9 0.1,0.1 v -0.3 q -0.05,0 -0.05,0.05 v 0 q 0,0.05 -0.02,0.07 -0.03,0.03 -0.03,0.08 z m 0.25,-1.5 0.1,0.1 v -0.3 z m 26.15,-3.65 v -2 q 0,-0.25 0.07,-0.53 0.08,-0.27 0.08,-0.47 v 0 -1.05 l 0.25,-0.15 h 1.4 q 0.05,-0.1 0.15,-0.13 0.1,-0.02 0.2,-0.12 v 0 l 0.2,-0.15 h 0.25 l 1.15,0.4 v 1 q 0,0.15 0.2,0.5 0.2,0.35 0.2,0.45 v 0 l -0.4,0.85 q 0.1,0.15 0.1,0.45 0,0.3 0.05,0.55 v 0 q 0,0.15 -0.05,0.32 -0.05,0.18 -0.05,0.33 v 0 q 0,0.25 0.1,0.45 0.1,0.2 0.1,0.4 v 0 q 0,1 0.05,1.47 0.05,0.48 0.12,0.7 0.08,0.23 0.15,0.35 0.08,0.13 0.18,0.48 v 0 q 1.25,0 2.45,-0.18 1.2,-0.17 1.55,-1.02 v 0 q 0.4,-0.9 0.42,-1.63 0.03,-0.72 0.43,-1.72 v 0 l 0.05,-0.8 0.35,-0.9 -0.05,-0.5 q 0.05,-0.35 0.17,-0.85 0.13,-0.5 0.33,-1 0.2,-0.5 0.47,-0.88 0.28,-0.37 0.68,-0.47 v 0 l 2.6,0.3 h 0.05 q 0.5,0 0.67,0.37 0.18,0.38 0.28,0.38 v 0 l -0.05,1.3 q 0.05,0.25 0.15,0.2 0.1,-0.05 0.1,0.2 v 0 q 0,0.3 -0.18,0.65 -0.17,0.35 -0.35,0.75 -0.17,0.4 -0.35,0.82 -0.17,0.43 -0.17,0.78 v 0 l 0.2,0.3 q 0,0.2 -0.1,0.42 -0.1,0.23 -0.1,0.48 v 0 h 0.15 q -0.15,0.1 -0.15,0.25 v 0 q 0,0.15 0.15,0.3 v 0 h 0.15 l -0.95,2.05 0.45,0.05 -0.9,1.8 0.1,1.95 q 0,0.35 0.05,0.7 0.05,0.35 0.05,0.7 v 0 q 0,0.4 -0.1,0.8 -0.1,0.4 -0.1,0.65 v 0 L 154.08,1.7 Q 154.03,1.65 154,1.63 153.98,1.6 153.73,1.5 v 0 l -0.15,0.3 0.3,-0.05 0.35,1.15 -0.55,1.1 q -0.1,-0.15 -0.1,-0.15 v 0 q -0.15,0 -0.2,0.15 v 0 q -0.05,0 -0.15,-0.1 v 0 l -0.1,-0.15 q 0,0.2 0.02,0.45 0.03,0.25 0.03,0.45 v 0 q 0,0.25 -0.05,0.3 v 0 l -0.3,0.25 v 1.45 l -0.3,0.1 q -0.15,0.25 -0.15,0.4 v 0 q 0,0.35 0.2,0.35 v 0 l 0.2,-0.15 q -0.2,0.4 -0.18,0.58 0.03,0.17 -0.07,0.17 v 0 h -0.8 q 0.05,0.25 0.12,0.43 0.08,0.17 0.08,0.32 v 0 q 0,0.05 -0.05,0.1 v 0 l 0.15,0.15 0.4,-0.5 q 0.1,0.2 0.1,0.3 v 0 q 0,0.55 -0.38,0.95 -0.37,0.4 -0.67,0.5 v 0 l -1.25,0.05 q -0.1,0 -0.18,0.08 -0.07,0.07 -0.17,0.07 v 0 0.15 q -0.55,0 -1.38,0.43 -0.82,0.42 -1.17,0.67 v 0 l -0.35,0.4 q -0.25,0.25 -1.03,0.55 -0.77,0.3 -1.17,0.4 v 0 q -0.25,0.2 -0.43,0.45 -0.17,0.25 -0.47,0.3 v 0 -0.15 l -0.2,0.15 q -0.35,0 -0.93,0.15 -0.57,0.15 -0.92,0.15 v 0 l -0.1,-0.35 -0.3,0.05 q -0.25,-0.25 -0.63,-0.4 -0.37,-0.15 -0.37,-0.55 v 0 q 0,-0.4 0.35,-0.72 0.35,-0.33 0.85,-0.6 0.5,-0.28 1.02,-0.5 0.53,-0.23 0.93,-0.48 v 0 l 0.1,-0.3 1.4,-1.15 q 0.7,-0.5 1.32,-0.87 0.63,-0.38 1.33,-0.93 v 0 q 0.2,-0.15 0.27,-0.52 0.08,-0.38 0.1,-0.83 0.03,-0.45 0.05,-0.87 0.03,-0.43 0.08,-0.63 v 0 l 0.15,-0.2 q 0,-0.2 0.1,-0.3 v 0 l -0.1,-0.45 q 0.4,-0.55 0.5,-1.15 0.1,-0.6 0.2,-1.25 v 0 q 0,-0.1 0.15,-0.3 0.15,-0.2 0.15,-0.4 V 0.5 0 l 0.4,-2.1 q -0.65,0 -1.5,0.3 -0.85,0.3 -1.65,0.3 v 0 q -2.55,0 -3.85,-1.75 v 0 l -0.2,-0.45 q -0.2,-0.3 -0.3,-0.75 -0.1,-0.45 -0.18,-0.93 -0.07,-0.47 -0.17,-0.9 -0.1,-0.42 -0.3,-0.67 v 0 q -0.1,-0.2 -0.15,-0.83 -0.05,-0.62 -0.15,-0.77 z m 17.7,3.55 0.15,-0.35 q 0,-0.1 0.04,-0.18 0.06,-0.07 0.11,-0.17 v 0 l 0.14,-0.15 q 0,-0.7 0.48,-1.75 0.48,-1.05 1.08,-1.45 v 0 l 0.4,-0.2 q 0.1,-0.05 0.1,-0.22 0,-0.18 0.05,-0.28 v 0 l 0.2,-0.25 q 0.4,-0.55 0.9,-1.13 0.5,-0.57 0.97,-1.02 0.48,-0.45 0.88,-0.73 0.4,-0.27 0.69,-0.27 v 0 q 0.11,0 0.18,0.05 0.07,0.05 0.43,0.15 v 0 l 0.55,0.7 q 0.2,0.05 0.34,0.4 v 0 l 0.16,0.35 v 0.8 l 0.15,0.2 q 0.1,0.1 0.15,0.17 0.04,0.08 0.15,0.13 v 0 l 0.6,0.4 q 0.04,0.2 0.29,0.5 0.25,0.3 0.5,0.6 v 0 l 0.71,0.8 q 0.1,0.15 0.2,0.55 0.09,0.4 0.17,0.85 0.08,0.45 0.13,0.82 0.04,0.38 0.04,0.53 v 0 0.4 l -0.44,1.05 -0.06,0.4 -0.5,0.55 -0.75,0.6 q -0.25,0.15 -0.64,0.15 -0.4,0 -0.7,0.25 v 0 l -0.41,0.15 q -0.29,0.2 -0.5,0.2 v 0 q -0.04,0 -0.07,-0.03 -0.02,-0.02 -0.07,-0.02 v 0 l -0.61,0.1 q -0.19,0.15 -0.84,0.15 v 0 q -0.35,0 -0.55,-0.05 v 0 l -1.15,-0.3 -1.15,-0.4 q -0.7,-0.2 -1.08,-0.35 -0.37,-0.15 -0.82,-1 v 0 q -0.1,-0.25 -0.2,-0.5 -0.1,-0.25 -0.21,-0.4 v 0 z m 4.19,0.15 0.06,1.2 0.25,0.05 q 0.4,-0.1 0.94,-0.18 0.56,-0.07 0.81,-0.22 v 0 l 0.5,-0.35 0.4,-0.45 0.15,-0.45 -0.61,-2.3 -0.84,-0.35 -0.16,0.1 q -0.09,0.05 -0.29,0.37 -0.21,0.33 -0.43,0.78 -0.22,0.45 -0.45,0.95 -0.22,0.5 -0.33,0.85 z m -1.54,-3 -0.25,-0.2 q -0.25,0.25 -0.6,0.9 -0.36,0.65 -0.36,1.15 v 0 q 0,0.2 0.06,0.3 v 0 l 0.1,-0.25 0.8,-1.45 q 0.2,-0.3 0.25,-0.45 z m 21.34,-1.75 -0.1,-0.65 0.25,-0.6 0.15,0.25 -0.1,0.2 0.1,0.5 h 0.25 l 0.4,-1.2 -0.05,-0.25 -0.35,0.1 q 0.05,-0.05 0.05,-0.15 v 0 q 0,-0.1 -0.05,-0.15 -0.05,-0.05 -0.15,-0.3 v 0 l 0.35,-0.9 v -0.4 q 0,-0.25 0.2,-0.25 v 0 l -0.05,-0.7 h 0.15 q 0.1,0 0.25,-0.15 v 0 l 1.4,0.15 0.45,-0.2 0.65,0.2 0.2,-0.15 0.15,0.1 h 0.25 l 0.85,0.7 v 0.15 l 0.55,0.3 q 0.05,0.15 0.15,0.35 0.1,0.2 0.1,0.3 v 0 l 0.05,0.15 -0.15,0.1 -0.1,0.6 q 0,0.15 -0.15,0.37 -0.15,0.23 -0.15,0.43 v 0 l -0.2,1.05 q 0,0.15 -0.25,0.65 -0.25,0.5 -0.25,0.7 v 0 0.65 q 0,0.2 -0.3,0.97 -0.3,0.78 -0.3,1.73 v 0 0.4 q 0,0.1 -0.05,0.1 v 0 l -0.05,-0.05 q -0.1,-0.05 -0.1,-0.05 v 0 0.05 l -0.25,0.35 v 1.1 l -0.2,0.5 0.2,1.05 v 0.7 q 0,0.35 -0.05,0.62 -0.05,0.28 -0.15,0.28 v 0 h -0.25 q -0.5,0.25 -1.02,0.2 -0.53,-0.05 -1.23,0.4 v 0 h -0.25 q -0.55,0 -0.85,-0.25 v 0 l -1.25,-0.8 v -1.7 q -0.8,0.5 -1.4,0.9 -0.6,0.4 -1.85,0.5 v 0 l -1.1,0.1 -0.4,-0.05 -0.25,0.15 -0.1,-0.25 q -0.1,0 -0.32,-0.03 -0.23,-0.02 -0.38,-0.02 v 0 h -0.15 q -0.3,0 -0.8,-0.23 -0.5,-0.22 -0.97,-0.6 -0.48,-0.37 -0.83,-0.87 -0.35,-0.5 -0.4,-1.05 v 0 l -0.35,-1.05 0.25,-0.7 0.05,-1.25 q 0,-0.15 0.05,-0.4 0.05,-0.25 0.1,-0.4 v 0 q 0,-0.05 -0.02,-0.13 -0.03,-0.07 -0.03,-0.12 v 0 l 0.2,-0.65 v -0.1 -0.35 q 0,-0.2 0.05,-0.25 v 0 l 0.15,-0.3 q 0.05,-0.15 0.08,-0.48 0.02,-0.32 0.02,-0.42 v 0 l 0.15,-0.4 0.45,-0.75 v -0.3 q 0.1,-0.4 0.2,-1.03 0.1,-0.62 0.65,-0.62 v 0 q 0.4,0 0.88,0.3 0.47,0.3 0.87,0.72 0.4,0.43 0.68,0.88 0.27,0.45 0.27,0.75 v 0 q 0,0.5 -0.25,1 -0.25,0.5 -0.25,1.25 v 0 l 0.05,0.3 -0.75,3.25 0.2,0.6 q 0.1,0.25 0.2,0.5 0.1,0.25 0.4,0.25 v 0 q 1.45,0 2.68,-0.5 1.22,-0.5 2.02,-1.5 v 0 l 0.15,-0.2 q 0,-0.1 0,-0.23 0,-0.12 0.05,-0.22 v 0 q 0.05,-0.15 0.1,-0.25 v 0 l 0.1,0.2 1.05,-0.75 q -0.05,-0.1 -0.02,-0.18 0.02,-0.07 -0.13,-0.17 v 0 q -0.15,0.15 -0.25,0.15 v 0 q 0.05,0 -0.45,-0.1 v 0 q 0,-0.5 0.25,-0.78 0.25,-0.27 0.3,-0.52 v 0 h -0.05 q -0.15,0 -0.3,-0.3 v 0 q -0.1,0 -0.15,0.05 -0.05,0.05 -0.1,0.05 v 0 q 0.1,-0.15 0.38,-0.48 0.27,-0.32 0.27,-0.47 z m 0.15,2.1 v 0 q 0.1,0.05 0.1,0.05 v 0 q 0.15,0 0.23,-0.25 0.07,-0.25 0.32,-0.8 v 0 q -0.2,0 -0.42,0.37 -0.23,0.38 -0.23,0.63 z m -0.2,-1.25 V -9 h -0.15 l -0.05,0.05 z m 0.35,-0.55 0.05,0.1 0.1,-0.3 z m 13.55,5.65 h -0.05 v 0.4 q 0,0.35 0.1,0.55 v 0 l 0.1,-0.05 q 0,0.2 -0.02,0.48 -0.03,0.27 -0.23,0.37 v 0 l -0.25,2.2 q -0.2,0.05 -0.45,0.05 v 0 h -0.25 q -0.1,0 -0.25,0.1 v 0 l -0.05,-0.4 q -0.15,0.1 -0.15,0.3 v 0 0.3 0.2 q -0.1,-0.1 -0.25,-0.1 v 0 q -0.1,0 -0.07,0.03 0.02,0.02 -0.08,0.02 v 0 q -0.15,0 -0.6,-0.2 -0.45,-0.2 -1,-0.2 v 0 q -0.3,0 -0.45,0.05 v 0 q 0,-0.1 0.05,-0.25 0.05,-0.15 0.05,-0.25 v 0 q -0.25,-0.25 -0.33,-0.7 -0.07,-0.45 -0.47,-0.45 v 0 h -0.1 q 0.15,-0.25 0.18,-0.58 0.02,-0.32 0.02,-0.57 v 0 q 0,-0.1 -0.1,-0.6 v 0 L 192.17,-3.6 V -4 -4.2 q 0.05,-0.1 0.23,-0.2 0.17,-0.1 0.27,-0.2 v 0 q 0,-0.1 -0.1,-0.3 -0.1,-0.2 -0.1,-0.4 v 0 l 0.25,-0.3 q -0.05,0 -0.05,-0.25 v 0 q 0,-0.3 0.02,-0.7 0.03,-0.4 0.03,-0.65 v 0 q 0,-0.3 -0.05,-0.3 v 0 l 0.45,-5.7 q 0.05,-0.35 0.22,-0.43 0.18,-0.07 0.43,-0.07 v 0 q 0.25,0 0.65,0.12 0.4,0.13 0.77,0.28 0.38,0.15 0.68,0.32 0.3,0.18 0.4,0.33 v 0 q 0.05,0.05 0.17,0.35 0.13,0.3 0.28,0.62 0.15,0.33 0.33,0.6 0.17,0.28 0.32,0.28 v 0 l 0.15,-0.1 q 0.65,-0.4 0.95,-0.73 0.3,-0.32 1.05,-0.47 v 0 q 0,-0.2 0.67,-0.58 0.68,-0.37 1.46,-0.75 0.77,-0.37 1.37,-0.65 0.6,-0.27 0.4,-0.27 v 0 q 0.25,0 0.75,0.2 0.5,0.2 0.9,0.6 v 0 l 0.95,0.95 -0.7,0.95 -0.75,0.25 0.1,0.2 q -0.25,0.3 -0.83,0.35 -0.57,0.05 -0.87,0.25 v 0 q 0,0.05 0.05,0.05 v 0 l 0.05,0.05 q -0.75,0.2 -1.45,0.45 v 0 q -0.6,0.25 -1.25,0.52 -0.65,0.28 -1.05,0.63 v 0 l -0.75,0.8 q 0,-0.05 -0.27,0.12 -0.28,0.18 -0.61,0.45 -0.32,0.28 -0.62,0.6 -0.3,0.33 -0.3,0.58 v 0 0.05 l 0.4,0.15 z m 4.5,-8.45 v 0 q -0.7,0.2 -1.2,0.55 v 0 l -0.5,0.3 0.05,0.1 q 0.65,-0.35 1.33,-0.63 0.67,-0.27 1.17,-0.37 v 0 q -0.2,0 -0.45,0 -0.25,0 -0.4,0.05 z m -2.6,1.1 v 0 q -0.1,0.1 -0.45,0.32 -0.35,0.23 -0.45,0.33 v 0 l -0.3,0.25 h 0.05 q 0.1,-0.15 0.35,-0.28 0.25,-0.12 0.53,-0.25 0.27,-0.12 0.47,-0.2 0.2,-0.07 0.2,-0.17 v 0 q 0,-0.1 -0.3,-0.2 v 0 q -0.05,0 -0.05,0.07 0,0.08 -0.05,0.13 z m 28.6,10.95 h -0.1 q -0.7,0.3 -1.7,0.5 -1,0.2 -1.8,0.2 v 0 q -0.45,0 -1.23,-0.1 -0.77,-0.1 -1.55,-0.35 -0.77,-0.25 -1.35,-0.6 -0.57,-0.35 -0.57,-0.9 v 0 q 0,-0.2 -0.03,-0.43 -0.02,-0.22 -0.02,-0.42 v 0 q 0.1,-1.4 0.17,-2.1 0.08,-0.7 0.2,-1.1 0.13,-0.4 0.3,-0.73 0.18,-0.32 0.48,-1.02 v 0 q 0,-0.05 0.12,-0.13 0.13,-0.07 0.23,-0.17 v 0 l 0.35,-0.15 h 0.25 q 0,0.2 -0.08,0.27 -0.07,0.08 -0.07,0.23 v 0 0.1 q 0.2,-0.1 0.32,-0.3 0.13,-0.2 0.28,-0.4 v 0 l 2.3,-1.95 h -0.8 q 0.2,-0.2 0.65,-0.4 0.45,-0.2 0.97,-0.43 0.53,-0.22 0.98,-0.42 0.45,-0.2 0.6,-0.35 v 0 q 0.7,-0.55 1.32,-0.75 0.63,-0.2 1.28,-0.8 v 0 q 0.15,-0.9 0.3,-1.95 0.15,-1.05 0.35,-2.12 0.2,-1.08 0.47,-2.11 0.28,-1.02 0.58,-1.92 v 0 q 0.1,-0.15 0.35,-0.18 0.25,-0.02 0.4,-0.02 v 0 q 0.1,0 0.2,0.05 0.1,0.05 0.2,0.05 v 0 l 0.45,-0.1 h 0.1 q 0.35,0 0.85,0.2 0.5,0.2 0.95,0.47 0.45,0.28 0.77,0.58 0.33,0.3 0.33,0.5 v 0 q 0,0.2 -0.15,0.3 v 0 l 0.15,0.1 q -0.05,0 -0.23,0.15 -0.17,0.15 -0.37,0.37 -0.2,0.23 -0.35,0.45 -0.15,0.23 -0.15,0.38 v 0 q 0,0.35 -0.15,0.95 -0.15,0.6 -0.33,1.22 -0.17,0.63 -0.32,1.13 -0.15,0.5 -0.15,0.65 v 0 l 0.15,0.25 q 0,0.35 -0.18,0.77 -0.17,0.43 -0.17,0.83 v 0 q 0,0.1 -0.08,0.25 -0.07,0.15 -0.17,0.55 -0.1,0.4 -0.28,1.12 -0.17,0.73 -0.37,2.03 v 0 q -0.2,0.25 -0.18,0.92 0.03,0.68 -0.07,1.03 v 0 l -0.1,0.35 q 0,0.1 0.05,0.37 0.05,0.28 0.05,0.53 v 0 q -0.15,0 -0.25,0.18 -0.1,0.17 -0.1,0.37 v 0 0.3 l 0.2,-0.6 q 0.05,0.2 0.1,0.45 0.05,0.25 0.05,0.35 v 0 l -0.1,0.35 v 0.4 q 0,0.1 -0.03,0.15 -0.02,0.05 -0.02,0.1 v 0 0.1 h -0.2 v 0.55 h 0.25 l 0.1,0.25 -0.1,0.6 0.1,0.1 q 0,0.05 0.05,0.27 0.05,0.23 0.05,0.33 v 0 l -0.1,0.1 v 0.4 l -0.95,0.45 -2.2,0.35 q -0.45,0 -0.78,-0.5 -0.32,-0.5 -0.47,-0.5 z m -4.7,-2.3 v 0 q 0.3,0.15 0.85,0.22 0.55,0.08 1.12,0.11 0.58,0.02 1.1,0.07 0.53,0.05 0.88,0.15 v 0 q 0.05,0 0.27,0.12 0.23,0.13 0.33,0.13 v 0 q 0.05,0 0.05,-0.25 v 0 -0.45 q 0,-0.15 0.1,-0.73 0.1,-0.57 0.1,-1.47 v 0 -0.4 h -0.05 q 0,-0.15 0.05,-0.25 0.05,-0.1 0.05,-0.3 v 0 -1.45 l 0.15,-0.2 v -1.3 q -0.15,0 -0.75,0.25 -0.6,0.25 -1.28,0.57 -0.67,0.33 -1.22,0.6 -0.55,0.28 -0.6,0.33 v 0 q -0.65,0.85 -0.85,1.47 -0.2,0.63 -0.3,1.08 v 0 0.25 q 0,0.1 0.02,0.2 0.03,0.1 0.03,0.15 v 0 l 0.1,0.4 q 0,0.05 -0.08,0.32 -0.07,0.28 -0.07,0.38 z m -0.2,-6.75 v 0 q 0,0.1 -0.3,0.42 -0.3,0.33 -0.4,0.43 v 0 -0.15 q 0,-0.3 0.22,-0.5 0.23,-0.2 0.48,-0.2 z m -0.95,0.55 0.05,0.25 q 0,0.1 -0.1,0.35 -0.1,0.25 -0.3,0.25 v 0 -0.4 z m 1.4,-1.1 v 0 q 0.05,0 0.05,0.1 v 0 q 0,0.15 -0.1,0.35 -0.1,0.2 -0.25,0.2 v 0 q -0.05,0 -0.05,-0.05 v 0 q 0,-0.1 0.12,-0.35 0.13,-0.25 0.23,-0.25 z m 15.34,7.2 v 0 q 0,-0.05 0.03,-0.35 0.02,-0.3 0.05,-0.63 0.02,-0.32 0.05,-0.6 0.02,-0.27 0.02,-0.37 v 0 l 0.25,-0.55 q 0,-0.1 0.15,-0.33 0.15,-0.22 0.15,-0.32 v 0 l 0.2,0.15 V -6.3 l 0.2,-0.4 q 0,-0.05 -0.02,-0.1 -0.03,-0.05 -0.03,-0.15 v 0 q 0,-0.15 0.03,-0.33 0.02,-0.17 0.02,-0.27 v 0 q -0.25,0 -0.3,0.05 v 0 l -0.1,0.05 -0.2,-0.1 q 0,-0.15 0.05,-0.25 v 0 l 0.1,-0.35 q 0.1,-0.7 0.18,-1.35 0.07,-0.65 0.07,-1.35 v 0 l 0.7,-4.9 q 0,-0.1 0.03,-0.5 0.02,-0.4 0.12,-0.85 v 0 l 0.2,-1.2 0.2,-0.6 q 0,-0.15 0.25,-0.63 0.25,-0.47 0.25,-0.62 v 0 -0.2 -0.15 q 0,-0.7 0.63,-0.8 0.62,-0.1 1.37,-0.3 v 0 l 0.25,0.15 q 0.2,0.25 0.35,0.17 0.15,-0.07 0.6,0.33 v 0 l 0.55,0.45 0.25,0.35 v 0.25 q 0,0.1 0.03,0.2 0.02,0.1 0.02,0.2 v 0 l 0.05,0.35 q 0,0.7 -0.35,1.22 -0.35,0.53 -0.35,1.23 v 0 0.2 l -0.2,0.4 q -0.05,0.25 -0.05,0.55 0,0.3 0,0.5 v 0 l 0.05,0.2 q 0,0.1 -0.07,0.72 -0.08,0.63 -0.08,0.73 v 0 l 0.1,0.2 q 0,0.15 -0.1,0.15 v 0 l 0.1,0.1 v 1.7 q -0.1,0 -0.1,0.1 v 0 0.3 l 0.15,-0.1 q -0.05,0.1 -0.07,0.42 -0.03,0.33 -0.18,0.88 v 0 q 0.2,-0.25 0.63,-0.5 0.42,-0.25 0.95,-0.45 0.52,-0.2 1.12,-0.35 0.6,-0.15 1.1,-0.3 v 0 q 0.05,-0.05 0.35,-0.1 0.3,-0.05 0.45,-0.15 v 0 l 0.6,0.1 h 0.2 q 0.2,0 0.35,-0.1 v 0 l 0.9,0.15 1.35,1.4 0.1,0.45 0.2,0.95 -0.05,0.2 h 0.1 q -0.05,0.1 -0.05,0.1 v 0 q 0,0.05 0.03,0.07 0.02,0.03 0.02,0.13 v 0 0.15 q 0,0.1 -0.05,0.22 -0.05,0.13 -0.05,0.23 v 0 l 0.05,0.2 q 0,0.25 -0.07,0.55 -0.08,0.3 -0.13,0.5 v 0 l -0.2,0.25 q 0,0.15 0.1,0.15 v 0 q 0,0.35 -0.07,0.62 -0.08,0.28 -0.08,0.33 v 0 0.1 0.05 -0.05 q 0,-0.05 0.05,-0.05 v 0 0.05 l -0.15,0.5 -0.1,0.1 0.1,0.45 q 0,0.2 -0.1,0.77 -0.1,0.58 -0.1,0.68 v 0 l -0.3,1.35 q -0.1,0.3 -0.65,0.5 -0.55,0.2 -0.75,0.35 v 0 l -0.9,0.15 q -0.25,0 -0.77,0.03 -0.53,0.02 -1.23,0.02 v 0 q -1,0 -1.92,-0.12 -0.93,-0.13 -0.93,-0.68 v 0 q -0.7,0 -1,-0.7 v 0 q 0,0.05 -0.02,0.12 -0.03,0.08 -0.03,0.28 v 0 q 0,0.3 0.05,0.5 v 0 q -0.15,0.2 -0.32,0.5 -0.18,0.3 -0.33,0.4 v 0 q -0.1,-0.05 -0.17,-0.17 -0.08,-0.13 -0.18,-0.13 v 0 q -0.1,0 -0.25,0.15 v 0 q -0.75,-0.45 -1.37,-0.45 -0.63,0 -1.1,-0.08 -0.48,-0.07 -0.75,-0.42 -0.28,-0.35 -0.28,-1.4 v 0 q 0,-0.1 0.03,-0.2 0.02,-0.1 0.02,-0.2 z m 4.6,0.25 0.1,0.1 q 1.2,-0.1 2.28,-0.4 1.07,-0.3 1.92,-0.55 v 0 l 0.3,-0.1 q 0.1,-0.05 0.15,-0.05 0.05,0 0.1,-0.05 v 0 l 0.2,-0.8 0.5,-4.35 v -0.7 q -0.35,0.15 -0.92,0.32 -0.58,0.18 -1.18,0.4 -0.6,0.23 -1.1,0.53 -0.5,0.3 -0.65,0.65 v 0 q -0.05,0.1 -0.05,0.2 0,0.1 -0.05,0.15 v 0 l -1.15,1.5 -0.15,0.7 v 0.15 q 0,0.05 -0.05,0.3 -0.05,0.25 -0.05,0.35 v 0 q 0,0.05 0.1,0.05 v 0 q 0,0.1 -0.05,0.27 -0.05,0.18 -0.05,0.28 v 0 z m -2.5,-4.65 -0.15,0.05 -0.15,0.3 q 0,0.2 -0.12,0.6 -0.13,0.4 -0.13,0.5 v 0 q 0,0.1 0.03,0.12 0.02,0.03 0.02,0.13 v 0 0.3 h 0.2 l 0.15,-0.35 q 0,-0.15 0.1,-0.43 0.1,-0.27 0.1,-0.47 v 0 q 0,-0.1 -0.02,-0.23 -0.03,-0.12 -0.03,-0.22 v 0 z m -1.2,1.9 h -0.15 q -0.15,0.1 -0.2,0.3 -0.05,0.2 -0.05,0.25 v 0 0.25 l 0.25,-0.25 z m -0.4,1.15 -0.1,0.4 q -0.05,0.05 -0.05,0.1 v 0 l -0.05,0.6 0.15,-0.2 v -0.2 q 0,-0.1 0.03,-0.18 0.02,-0.07 0.02,-0.17 v 0 z m 1.2,-4.45 v 0 q -0.1,-0.1 -0.15,-0.1 v 0 q -0.15,0 -0.15,0.2 v 0 q 0,0.15 0.15,0.15 v 0 q 0.1,0 0.15,-0.25 z m -0.1,3.9 -0.2,0.55 0.2,-0.2 z m 29.95,-7.75 h 0.05 l -0.1,0.25 0.05,-0.25 -1.25,0.5 q -0.05,0.05 -0.15,0.05 v 0 q -0.1,0 -0.1,-0.1 v 0 l -0.25,0.05 q -0.4,0.05 -1.02,0.1 -0.63,0.05 -1.23,0.1 -0.6,0.05 -1.02,0.17 -0.43,0.13 -0.43,0.33 v 0 0.05 l 0.1,0.1 q -0.1,0.1 -0.15,0.1 -0.05,0 -0.05,0.1 v 0 q 0,0.1 0.1,0.25 v 0 q 0,0.25 -0.15,0.25 -0.15,0 -0.15,0.4 v 0 q 0,0.2 0.3,0.2 v 0 q -0.3,0.15 -0.3,0.65 v 0 q 0,0.4 0.15,0.45 v 0 l 0.15,0.5 q -0.35,0.35 -0.35,0.65 v 0 q 0,0.25 0.05,0.35 v 0 q 0,0.4 -0.02,0.55 -0.03,0.15 -0.03,0.17 0,0.03 -0.02,0.05 -0.03,0.03 -0.03,0.18 v 0 l 0.05,0.05 q 0,0.4 -0.17,0.97 -0.18,0.58 -0.28,0.68 v 0 h -0.1 V -4 h 0.25 q -0.1,0.1 -0.2,0.15 -0.1,0.05 -0.1,0.15 v 0 q 0,0.05 0.05,0.1 v 0 h 0.35 l -0.35,1.6 0.2,0.1 q 0.3,0.1 0.85,0.1 v 0 q 0.45,-0.05 0.8,-0.22 0.35,-0.18 0.75,-0.23 v 0 h 0.15 q 0.2,0 0.48,-0.02 0.27,-0.03 0.52,-0.03 v 0 h 2.35 q 0.05,0 0.25,0.07 0.2,0.08 0.43,0.18 0.22,0.1 0.37,0.2 0.15,0.1 0.15,0.1 v 0 q 0,0.25 -0.3,0.57 -0.3,0.33 -0.55,0.53 v 0 l -2.25,0.7 -2.9,0.3 q -0.4,0 -1.1,0.38 -0.7,0.37 -1.4,0.37 v 0 -0.2 l -1.55,-0.15 q -0.55,-0.4 -0.8,-0.5 -0.25,-0.1 -0.4,-0.12 -0.15,-0.03 -0.25,-0.08 -0.1,-0.05 -0.35,-0.3 v 0 q 0,-0.15 0,-0.63 0,-0.47 0.03,-0.97 0.02,-0.5 0.07,-0.93 0.05,-0.42 0.15,-0.52 v 0 l 0.15,2.15 0.2,0.3 q 0,-0.7 0.03,-2.1 0.02,-1.4 0.17,-3.25 v 0 l -0.05,0.1 q -0.05,0.05 -0.07,-0.2 -0.03,-0.25 -0.03,-0.55 v 0 q 0,-0.55 0.05,-0.55 v 0 h 0.05 l 0.15,0.55 0.4,-2.8 h -0.2 v -0.5 -0.35 q -0.3,0.1 -0.7,0.1 -0.4,0 -0.75,0.25 v 0 l -1.05,0.05 -0.4,-0.05 -0.25,0.1 -0.15,-0.15 q -0.4,0 -0.95,-0.7 -0.55,-0.7 -0.55,-1.4 v 0 q 0,-0.3 0.63,-0.48 0.62,-0.17 1.47,-0.32 0.85,-0.15 1.73,-0.28 0.87,-0.12 1.42,-0.27 v 0 q 0.15,-0.45 0.23,-1.2 0.07,-0.75 0.1,-1.4 0.02,-0.65 0.05,-1.05 0.02,-0.4 0.02,-0.2 v 0 q 0,-0.05 0.1,-0.38 0.1,-0.32 0.23,-0.69 0.12,-0.38 0.22,-0.71 0.1,-0.32 0.1,-0.42 v 0 q -0.05,-0.05 -0.05,-0.15 v 0 q 0,-0.15 0.1,-0.4 0.1,-0.25 0.1,-0.4 v 0 l 0.1,-0.05 q 0.35,0 1.03,0.2 0.67,0.2 1.32,0.52 0.65,0.33 1.15,0.8 0.5,0.48 0.5,1.03 v 0 q 0,0.55 -0.5,1.3 -0.5,0.75 -0.5,1.6 v 0 l -0.3,1.15 q 1.35,0 2.78,-0.13 1.42,-0.12 2.12,-0.12 v 0 q 0.4,0 0.68,0.15 0.27,0.15 0.27,0.7 v 0 z m -10.75,6.95 0.1,1.4 -0.25,0.05 q 0,-0.1 0.03,-0.7 0.02,-0.6 0.12,-0.75 z m 2.3,3 h -0.25 l -0.25,0.55 v 0.5 z m 0,-1 v 0 q -0.2,0 -0.2,0.25 v 0 q 0,0.25 0.2,0.25 v 0 q 0.25,0 0.25,-0.25 v 0 q 0,-0.25 -0.25,-0.25 z m 22.45,-0.7 v 0 q 0,-0.35 0.15,-1.13 0.15,-0.77 0.42,-1.65 0.28,-0.87 0.68,-1.59 0.4,-0.73 0.85,-0.98 v 0 l 0.15,0.15 q -0.35,0.4 -0.73,1.05 -0.37,0.65 -0.37,1.2 v 0 0.4 q 0.1,-0.35 0.42,-1.03 0.33,-0.67 0.33,-0.97 v 0 -0.1 q 0.4,-0.5 0.6,-0.65 0.2,-0.15 0.6,-0.65 v 0 l 0.8,-0.7 q 0.65,-0.5 1.42,-0.75 0.78,-0.25 1.48,-0.35 v 0 l 1,-0.1 q 0.3,0 0.9,0.12 0.6,0.13 1.15,0.35 0.55,0.23 0.97,0.53 0.43,0.3 0.43,0.65 v 0 q 0,0.35 -0.58,0.52 -0.57,0.18 -1.32,0.25 -0.75,0.08 -1.53,0.13 -0.77,0.05 -1.17,0.2 v 0 l -1.2,2.3 0.05,0.1 q -0.25,0.55 -0.53,1.12 -0.27,0.58 -0.27,0.68 v 0 1.05 l 0.2,0.35 h 0.45 q 1.1,0 2.25,-0.08 1.15,-0.07 2.9,-0.37 v 0 l -0.05,0.4 -0.15,0.25 q 0,0.1 0.17,0.15 0.18,0.05 0.28,0.05 v 0 q -0.1,0.1 -0.1,0.25 v 0 q 0,0.1 0.05,0.15 0.05,0.05 0.05,0.15 v 0 q 0,0.25 -0.35,0.47 -0.35,0.23 -0.8,0.43 -0.45,0.2 -0.88,0.3 -0.42,0.1 -0.57,0.1 v 0 l -2.5,0.35 q -0.15,-0.05 -0.45,-0.05 v 0 q -0.25,0 -0.43,0.02 -0.17,0.03 -0.37,0.03 v 0 q -0.55,0 -0.63,-0.15 -0.07,-0.15 -0.27,-0.2 v 0 q -0.8,-0.15 -1.35,-0.4 -0.55,-0.25 -0.85,-0.5 v 0 q -0.1,-0.1 -0.33,-0.35 -0.22,-0.25 -0.45,-0.53 -0.22,-0.27 -0.37,-0.55 -0.15,-0.27 -0.15,-0.42 z m 1.55,-2.2 -0.05,-0.25 q 0,0.1 -0.05,0.25 -0.05,0.15 -0.05,0.25 v 0 l 0.1,0.25 q 0.05,-0.1 0.05,-0.5 z m -0.05,-0.55 0.1,0.1 q 0,-0.1 0.05,-0.25 0.05,-0.15 0.05,-0.25 v 0 -0.1 q -0.2,0.15 -0.2,0.5 z m 12.24,1.6 0.15,-0.35 q 0,-0.1 0.05,-0.18 0.05,-0.07 0.1,-0.17 v 0 L 298,-5.85 q 0,-0.7 0.48,-1.75 0.47,-1.05 1.07,-1.45 v 0 l 0.4,-0.2 q 0.1,-0.05 0.1,-0.22 0,-0.18 0.05,-0.28 v 0 l 0.2,-0.25 q 0.4,-0.55 0.9,-1.13 0.5,-0.57 0.98,-1.02 0.47,-0.45 0.87,-0.73 0.4,-0.27 0.7,-0.27 v 0 q 0.1,0 0.18,0.05 0.07,0.05 0.42,0.15 v 0 l 0.55,0.7 q 0.2,0.05 0.35,0.4 v 0 l 0.15,0.35 v 0.8 l 0.15,0.2 q 0.1,0.1 0.15,0.17 0.05,0.08 0.15,0.13 v 0 l 0.6,0.4 q 0.05,0.2 0.3,0.5 0.25,0.3 0.5,0.6 v 0 l 0.7,0.8 q 0.1,0.15 0.2,0.55 0.1,0.4 0.18,0.85 0.07,0.45 0.12,0.82 0.05,0.38 0.05,0.53 v 0 0.4 l -0.45,1.05 -0.05,0.4 -0.5,0.55 -0.75,0.6 Q 306.5,-2 306.1,-2 q -0.4,0 -0.7,0.25 v 0 L 305,-1.6 q -0.3,0.2 -0.5,0.2 v 0 q -0.05,0 -0.07,-0.03 -0.03,-0.02 -0.08,-0.02 v 0 l -0.6,0.1 q -0.2,0.15 -0.85,0.15 v 0 q -0.35,0 -0.55,-0.05 v 0 l -1.15,-0.3 -1.15,-0.4 q -0.7,-0.2 -1.07,-0.35 -0.38,-0.15 -0.83,-1 v 0 q -0.1,-0.25 -0.2,-0.5 -0.1,-0.25 -0.2,-0.4 v 0 z m 4.2,0.15 0.05,1.2 0.25,0.05 q 0.4,-0.1 0.95,-0.18 0.55,-0.07 0.8,-0.22 v 0 l 0.5,-0.35 0.4,-0.45 0.15,-0.45 -0.6,-2.3 -0.85,-0.35 -0.15,0.1 q -0.1,0.05 -0.3,0.37 -0.2,0.33 -0.42,0.78 -0.23,0.45 -0.45,0.95 -0.23,0.5 -0.33,0.85 z m -1.55,-3 -0.25,-0.2 q -0.25,0.25 -0.6,0.9 Q 299,-6.5 299,-6 v 0 q 0,0.2 0.05,0.3 v 0 l 0.1,-0.25 0.8,-1.45 q 0.2,-0.3 0.25,-0.45 z m 11.3,2.7 -0.15,-0.75 0.55,-1.35 q 0,-0.1 -0.02,-0.15 -0.03,-0.05 -0.03,-0.15 v 0 q 0,-0.45 0.2,-1.03 0.2,-0.57 0.5,-1.22 0.3,-0.65 0.68,-1.28 0.37,-0.62 0.72,-1.22 v 0 q -0.05,-0.05 -0.05,-0.1 v 0 q 0,-0.2 0.18,-0.38 0.17,-0.17 0.32,-0.17 v 0 q 0.45,0 1,0.2 0.55,0.2 1.03,0.52 0.47,0.33 0.82,0.75 0.35,0.43 0.35,0.93 v 0 l -0.1,0.4 3.9,-1.7 h 0.9 q 0,-0.1 0.13,-0.13 0.12,-0.02 0.17,-0.02 v 0 q 0.3,0 0.43,0.1 0.12,0.1 0.37,0.35 v 0 l 0.6,0.1 q 0.2,0.1 0.63,0.3 0.42,0.2 0.42,0.35 v 0 0.85 h -0.2 l -0.05,0.15 q 0,0.05 0.05,0.05 v 0 h 0.1 q 0.05,0.05 0.1,0.05 v 0 0.15 l -0.1,0.15 q 0,0.4 0.1,0.45 v 0 q 0,0.5 -0.15,1.25 -0.15,0.75 -0.55,1 v 0 h 0.35 q -0.1,0.1 -0.1,0.25 v 0 q 0,0.15 0.05,0.17 0.05,0.03 0.05,0.08 v 0 q 0,0.4 -0.12,0.8 -0.13,0.4 -0.13,0.6 v 0 l -0.2,0.75 q -0.1,0.4 -0.22,0.65 -0.13,0.25 -0.13,0.8 v 0 l 0.1,0.25 q 0,0.15 -0.15,0.4 -0.15,0.25 -0.15,0.5 v 0 q 0,0.5 0.1,0.6 v 0 0.1 l -0.25,0.1 -0.15,0.3 q -0.3,0.1 -0.37,0.17 -0.08,0.08 -0.13,0.1 -0.05,0.03 -0.2,0.05 Q 322.55,0 322.05,0 v 0 q -0.5,0 -0.77,-0.4 -0.28,-0.4 -0.43,-0.93 -0.15,-0.52 -0.17,-1.1 -0.03,-0.57 -0.03,-0.87 v 0 q 0,-0.75 0,-1.28 0,-0.52 0.03,-1 0.02,-0.47 0.07,-1 0.05,-0.52 0.15,-1.27 v 0 q 0,-0.2 -0.07,-0.68 -0.08,-0.47 -0.08,-0.57 v 0 l -0.55,0.2 q -1.15,0.5 -2.3,1.25 -1.15,0.75 -1.35,1.8 v 0 l -0.1,0.45 0.15,0.1 q -0.1,0.25 -0.12,0.37 -0.03,0.13 -0.03,0.58 v 0 l 0.4,-0.3 v 0.05 q 0,0.7 -0.42,1.02 Q 316,-3.25 316,-2.8 v 0 l 0.35,1.35 -0.1,1.35 h -0.5 q -0.1,0.05 -0.27,0.18 -0.18,0.12 -0.33,0.12 v 0 l -2.4,-0.25 -1.65,-0.8 0.45,-0.6 q -0.1,0.1 -0.15,0.1 v 0 h -0.05 q -0.15,0 -0.2,-0.05 v 0 q 0,-0.25 0.1,-0.35 v 0 l 0.1,0.2 0.85,-0.95 q 0,-0.2 -0.15,-0.3 v 0 q -0.15,0.15 -0.2,0.17 -0.05,0.03 -0.55,0.03 v 0 q 0,-0.5 0.18,-0.83 0.17,-0.32 0.17,-0.57 v 0 h -0.1 q -0.1,0 -0.25,-0.2 v 0 q -0.1,0 -0.17,0.05 -0.08,0.05 -0.13,0.05 v 0 q 0.05,-0.15 0.28,-0.53 0.22,-0.37 0.22,-0.52 z m 0.55,2.05 v 0 q 0.25,0 0.23,-0.23 -0.03,-0.22 0.17,-0.82 v 0 q -0.15,0 -0.3,0.32 Q 312,-3.5 312,-3.25 v 0 q 0,0.1 0.05,0.15 z m -0.5,-1.2 -0.05,-0.25 h -0.15 v 0.05 q 0,0.05 0.2,0.2 z m 0,0.9 0.1,0.1 v -0.3 q -0.05,0 -0.05,0.05 v 0 q 0,0.05 -0.02,0.07 -0.03,0.03 -0.03,0.08 z m 0.25,-1.5 0.1,0.1 v -0.3 z m 20.15,4.45 h -0.05 q -0.1,-0.5 -0.3,-0.9 v 0 l 0.2,-0.05 q 0.05,0.1 0.32,0.45 0.28,0.35 0.28,0.45 v 0 l 0.4,0.45 q -0.15,-0.4 -0.38,-1.08 -0.22,-0.67 -0.47,-1.42 -0.25,-0.75 -0.5,-1.5 Q 331.2,-4.8 331,-5.4 v 0 l -0.4,-1.8 q -0.25,-1 -0.38,-1.85 -0.12,-0.85 -0.37,-1.85 v 0 l -0.2,0.1 -0.05,0.55 -0.35,0.35 -0.1,-0.3 q -0.05,-0.05 -0.05,-0.15 v 0 q -0.2,-0.7 -0.3,-0.88 -0.1,-0.17 -0.25,-0.52 v 0 l -0.5,-0.95 0.55,-0.6 q 0.25,0 0.62,0.05 0.38,0.05 0.43,0.05 v 0 H 330 l 1,0.65 q 0.6,0.15 0.75,0.42 0.15,0.28 0.4,0.73 v 0 l 0.35,1 q 0.1,0.15 0.1,0.72 0,0.58 0.1,0.68 v 0 l 0.3,0.6 q 0.2,0.4 0.47,1.37 0.28,0.98 0.48,2.03 v 0 l 0.25,0.35 q 0.1,0.15 0.1,0.48 0,0.32 0.1,0.52 v 0 l 0.5,0.9 q 0.25,0 0.57,-0.75 0.33,-0.75 0.65,-1.7 0.33,-0.95 0.58,-1.83 0.25,-0.87 0.35,-1.07 v 0 q 0.05,-0.2 0.17,-0.25 0.13,-0.05 0.23,-0.25 v 0 q 0.55,-1 0.82,-2.08 0.28,-1.07 0.83,-2.07 v 0 q 0.45,-0.85 0.82,-1.58 0.38,-0.72 0.78,-1.57 v 0 l 1.1,-1 q 0.15,0 0.22,0.27 0.08,0.28 0.23,0.28 v 0 q 0.35,-0.05 0.97,-0.18 0.63,-0.12 1.18,-0.12 v 0 q 0.4,0 0.77,0.2 0.38,0.2 0.38,0.8 v 0 q 0,0.25 -0.08,0.45 -0.07,0.2 -0.07,0.45 v 0 q 0,0.15 0.05,0.25 v 0 l -0.5,0.25 -0.55,0.75 q -0.3,0.4 -0.4,1 -0.1,0.6 -0.45,1 v 0 q -0.55,0.55 -0.68,0.82 -0.12,0.28 -0.37,0.58 v 0 l -0.95,2.4 q -0.35,0.65 -0.6,1.25 v 0 q -0.25,0.55 -0.48,1.15 -0.22,0.6 -0.37,1.15 v 0 q -0.15,0.15 -0.43,0.62 -0.27,0.48 -0.55,1 -0.27,0.53 -0.45,1 -0.17,0.48 -0.17,0.63 v 0 q 0,0.05 -0.23,0.3 -0.22,0.25 -0.47,0.52 -0.25,0.28 -0.48,0.53 -0.22,0.25 -0.27,0.3 v 0 l -0.95,0.45 -1.25,0.2 -0.3,0.15 -0.2,-0.15 Q 333.6,1 333.2,0.78 332.8,0.55 332.57,0.4 332.35,0.25 332.22,0.08 332.1,-0.1 331.95,-0.45 Z M 330.3,-5.4 v -0.7 l 0.05,-0.25 0.2,0.4 0.05,0.7 z m -0.65,-3.5 -0.25,-0.6 0.25,-0.1 0.2,0.2 z m 0.25,1.75 0.4,-0.1 -0.05,0.5 h -0.2 z m 1.1,4.35 0.25,-0.05 0.3,0.1 -0.15,0.3 z m -1.15,-5.05 -0.1,-0.2 0.15,-0.3 0.25,0.7 z M 331,-3.5 v 0 h 0.1 q 0.1,0 0.1,0.05 v 0 q 0,0.2 -0.3,0.2 v 0 q -0.05,0 -0.05,-0.05 v 0 q 0,-0.1 0.15,-0.2 z m -1.1,-5.35 -0.05,0.4 -0.15,-0.3 z m 0.7,4.35 0.2,-0.1 -0.1,0.3 z m 22.75,-1 0.05,-0.1 q 0.3,0 0.47,-0.15 0.18,-0.15 0.28,-0.3 0.1,-0.15 0.22,-0.3 0.13,-0.15 0.33,-0.15 v 0 q 0.65,0 1.22,-0.53 0.58,-0.52 0.58,-2.47 v 0 -0.95 q 0,-0.25 -0.2,-0.45 -0.2,-0.2 -0.3,-0.2 v 0 q -0.05,0.05 -0.35,0.2 -0.3,0.15 -0.65,0.37 -0.35,0.23 -0.7,0.48 -0.35,0.25 -0.55,0.5 v 0 0.5 q -0.1,0.8 -0.4,1.75 -0.3,0.95 -0.3,1.8 v 0 z m 7.2,-1.85 v 0.3 l -0.65,0.75 -0.3,0.2 q -0.55,0.25 -1.05,0.52 -0.5,0.28 -1,0.43 v 0 l -0.2,0.2 h -0.25 q -0.3,0 -0.38,0.2 -0.07,0.2 -0.37,0.25 v 0 q -0.55,0.1 -0.7,0.2 -0.15,0.1 -0.15,0.15 v 0 q 0.05,0.1 0.05,0.1 v 0 q 0,0.05 -0.18,0.1 -0.17,0.05 -0.37,0.07 -0.2,0.03 -0.35,0.05 -0.15,0.03 -0.1,0.03 v 0 h -0.25 q -0.15,0.15 -0.8,0.2 -0.65,0.05 -1.05,0.3 v 0 l 0.3,1.2 q 0.25,0.1 0.67,0.2 0.43,0.1 0.88,0.15 0.45,0.05 0.85,0.07 0.4,0.03 0.6,0.03 v 0 q 0.7,0 1.37,-0.08 0.68,-0.07 1.43,-0.07 v 0 q 0.7,0 1.35,0.12 0.65,0.13 1.25,0.53 v 0 0.35 q 0,0.25 -0.03,0.57 -0.02,0.33 -0.17,0.43 v 0 l -0.2,0.1 q -0.05,0.05 -0.4,0.13 -0.35,0.07 -0.8,0.17 -0.45,0.1 -0.93,0.18 -0.47,0.07 -0.72,0.07 v 0 q -1,0 -1.98,0.03 -0.97,0.02 -1.97,0.02 v 0 q -0.75,0 -1.63,-0.25 -0.87,-0.25 -1.65,-0.7 -0.77,-0.45 -1.35,-1.1 -0.57,-0.65 -0.72,-1.45 v 0 l 0.15,-0.35 q 0,-0.1 0.05,-0.4 0.05,-0.3 0.1,-0.7 v 0 -0.45 h 0.35 l 0.05,-0.05 q 0,-0.3 0.05,-0.35 v 0 q 0,-0.05 -0.08,-0.13 -0.07,-0.07 -0.07,-0.17 v 0 q 0,-0.05 0.15,-0.15 v 0 L 349.4,-6 q 0,-0.2 0.02,-0.45 0.03,-0.25 0.23,-0.65 v 0 l 0.15,-0.1 q 0,-0.2 -0.2,-0.4 v 0 q 0.15,-0.05 0.2,-0.3 0.05,-0.25 0.15,-0.25 v 0 q 0.05,0 0.05,0.02 0,0.03 0.05,0.03 v 0 l 0.2,0.15 Q 350.3,-8 350.3,-8 v 0 h 0.15 q 0.15,0 0.15,-0.1 v 0 q 0,-0.25 -0.23,-0.43 -0.22,-0.17 -0.22,-0.42 v 0 q 0,-0.1 0.05,-0.15 v 0 q 0,-0.1 -0.05,-0.15 -0.05,-0.05 -0.05,-0.1 v 0 l 0.15,-0.05 q 0.3,-0.75 0.67,-1.15 0.38,-0.4 0.83,-0.8 v 0 L 352,-11.5 q 0.7,-0.45 1.37,-1 0.68,-0.55 1.53,-0.55 v 0 q 0.85,0 1.82,0.17 0.98,0.18 1.88,0.18 v 0 q 1.2,0.6 1.37,0.72 0.18,0.13 0.28,0.13 v 0 l -0.05,0.5 0.4,0.3 0.15,0.3 -0.35,0.45 0.3,0.4 -0.3,0.45 q -0.1,0.1 -0.1,0.25 0,0.15 0,0.25 v 0 l 0.05,0.05 0.05,0.25 -0.1,0.55 0.35,0.15 v 0.3 l -0.2,0.15 z m 0.1,-1.75 v 0 h 0.1 q 0.1,0 0.1,0.15 v 0 q 0,0.2 -0.2,0.2 v 0 q -0.1,0 -0.1,-0.2 v 0 q 0,-0.15 0.1,-0.15 z m 0.2,0.7 v 0 q 0,0.2 -0.1,0.2 v 0 q -0.1,0 -0.1,-0.2 v 0 q 0,-0.1 0.05,-0.1 v 0 q 0.05,0 0.15,0.1 z m 3.79,3.25 -0.15,-0.75 0.55,-1.35 q 0,-0.1 -0.02,-0.15 -0.03,-0.05 -0.03,-0.15 v 0 q 0,-0.45 0.2,-1.03 0.2,-0.57 0.5,-1.22 0.3,-0.65 0.68,-1.28 0.37,-0.62 0.72,-1.22 v 0 q -0.05,-0.05 -0.05,-0.1 v 0 q 0,-0.2 0.18,-0.38 0.17,-0.17 0.32,-0.17 v 0 q 0.45,0 1,0.2 0.55,0.2 1.03,0.52 0.47,0.33 0.82,0.75 0.35,0.43 0.35,0.93 v 0 l -0.1,0.4 3.9,-1.7 h 0.9 q 0,-0.1 0.13,-0.13 0.12,-0.02 0.17,-0.02 v 0 q 0.3,0 0.43,0.1 0.12,0.1 0.37,0.35 v 0 l 0.6,0.1 q 0.2,0.1 0.63,0.3 0.42,0.2 0.42,0.35 v 0 0.85 h -0.2 l -0.05,0.15 q 0,0.05 0.05,0.05 v 0 h 0.1 q 0.05,0.05 0.1,0.05 v 0 0.15 l -0.1,0.15 q 0,0.4 0.1,0.45 v 0 q 0,0.5 -0.15,1.25 -0.15,0.75 -0.55,1 v 0 h 0.35 q -0.1,0.1 -0.1,0.25 v 0 q 0,0.15 0.05,0.17 0.05,0.03 0.05,0.08 v 0 q 0,0.4 -0.12,0.8 -0.13,0.4 -0.13,0.6 v 0 l -0.2,0.75 q -0.1,0.4 -0.22,0.65 -0.13,0.25 -0.13,0.8 v 0 l 0.1,0.25 q 0,0.15 -0.15,0.4 -0.15,0.25 -0.15,0.5 v 0 q 0,0.5 0.1,0.6 v 0 0.1 l -0.25,0.1 -0.15,0.3 q -0.3,0.1 -0.37,0.17 -0.08,0.08 -0.13,0.1 -0.05,0.03 -0.2,0.05 Q 375.69,0 375.19,0 v 0 q -0.5,0 -0.77,-0.4 -0.28,-0.4 -0.43,-0.93 -0.15,-0.52 -0.17,-1.1 -0.03,-0.57 -0.03,-0.87 v 0 q 0,-0.75 0,-1.28 0,-0.52 0.03,-1 0.02,-0.47 0.07,-1 0.05,-0.52 0.15,-1.27 v 0 q 0,-0.2 -0.07,-0.68 -0.08,-0.47 -0.08,-0.57 v 0 l -0.55,0.2 q -1.15,0.5 -2.3,1.25 -1.15,0.75 -1.35,1.8 v 0 l -0.1,0.45 0.15,0.1 q -0.1,0.25 -0.12,0.37 -0.03,0.13 -0.03,0.58 v 0 l 0.4,-0.3 v 0.05 q 0,0.7 -0.42,1.02 -0.43,0.33 -0.43,0.78 v 0 l 0.35,1.35 -0.1,1.35 h -0.5 q -0.1,0.05 -0.27,0.18 -0.18,0.12 -0.33,0.12 v 0 l -2.4,-0.25 -1.65,-0.8 0.45,-0.6 q -0.1,0.1 -0.15,0.1 v 0 h -0.05 q -0.15,0 -0.2,-0.05 v 0 q 0,-0.25 0.1,-0.35 v 0 l 0.1,0.2 0.85,-0.95 q 0,-0.2 -0.15,-0.3 v 0 q -0.15,0.15 -0.2,0.17 -0.05,0.03 -0.55,0.03 v 0 q 0,-0.5 0.18,-0.83 0.17,-0.32 0.17,-0.57 v 0 h -0.1 q -0.1,0 -0.25,-0.2 v 0 q -0.1,0 -0.17,0.05 -0.08,0.05 -0.13,0.05 v 0 q 0.05,-0.15 0.28,-0.53 0.22,-0.37 0.22,-0.52 z m 0.55,2.05 v 0 q 0.25,0 0.23,-0.23 -0.03,-0.22 0.17,-0.82 v 0 q -0.15,0 -0.3,0.32 -0.15,0.33 -0.15,0.58 v 0 q 0,0.1 0.05,0.15 z m -0.5,-1.2 -0.05,-0.25 h -0.15 v 0.05 q 0,0.05 0.2,0.2 z m 0,0.9 0.1,0.1 v -0.3 q -0.05,0 -0.05,0.05 v 0 q 0,0.05 -0.02,0.07 -0.03,0.03 -0.03,0.08 z m 0.25,-1.5 0.1,0.1 v -0.3 z m 30.85,-7.2 h 0.05 l -0.1,0.25 0.05,-0.25 -1.25,0.5 q -0.05,0.05 -0.15,0.05 v 0 q -0.1,0 -0.1,-0.1 v 0 l -0.25,0.05 q -0.4,0.05 -1.02,0.1 -0.63,0.05 -1.23,0.1 -0.6,0.05 -1.02,0.17 -0.43,0.13 -0.43,0.33 v 0 0.05 l 0.1,0.1 q -0.1,0.1 -0.15,0.1 -0.05,0 -0.05,0.1 v 0 q 0,0.1 0.1,0.25 v 0 q 0,0.25 -0.15,0.25 -0.15,0 -0.15,0.4 v 0 q 0,0.2 0.3,0.2 v 0 q -0.3,0.15 -0.3,0.65 v 0 q 0,0.4 0.15,0.45 v 0 l 0.15,0.5 q -0.35,0.35 -0.35,0.65 v 0 q 0,0.25 0.05,0.35 v 0 q 0,0.4 -0.02,0.55 -0.03,0.15 -0.03,0.17 0,0.03 -0.02,0.05 -0.03,0.03 -0.03,0.18 v 0 l 0.05,0.05 q 0,0.4 -0.17,0.97 -0.18,0.58 -0.28,0.68 v 0 h -0.1 V -4 h 0.25 q -0.1,0.1 -0.2,0.15 -0.1,0.05 -0.1,0.15 v 0 q 0,0.05 0.05,0.1 v 0 h 0.35 l -0.35,1.6 0.2,0.1 q 0.3,0.1 0.85,0.1 v 0 q 0.45,-0.05 0.8,-0.22 0.35,-0.18 0.75,-0.23 v 0 h 0.15 q 0.2,0 0.48,-0.02 0.27,-0.03 0.52,-0.03 v 0 h 2.35 q 0.05,0 0.25,0.07 0.2,0.08 0.43,0.18 0.22,0.1 0.37,0.2 0.15,0.1 0.15,0.1 v 0 q 0,0.25 -0.3,0.57 -0.3,0.33 -0.55,0.53 v 0 l -2.25,0.7 -2.9,0.3 q -0.4,0 -1.1,0.38 -0.7,0.37 -1.4,0.37 v 0 -0.2 l -1.55,-0.15 q -0.55,-0.4 -0.8,-0.5 -0.25,-0.1 -0.4,-0.12 -0.15,-0.03 -0.25,-0.08 -0.1,-0.05 -0.35,-0.3 v 0 q 0,-0.15 0,-0.63 0,-0.47 0.03,-0.97 0.02,-0.5 0.07,-0.93 0.05,-0.42 0.15,-0.52 v 0 l 0.15,2.15 0.2,0.3 q 0,-0.7 0.03,-2.1 0.02,-1.4 0.17,-3.25 v 0 l -0.05,0.1 q -0.05,0.05 -0.07,-0.2 -0.03,-0.25 -0.03,-0.55 v 0 q 0,-0.55 0.05,-0.55 v 0 h 0.05 l 0.15,0.55 0.4,-2.8 h -0.2 v -0.5 -0.35 q -0.3,0.1 -0.7,0.1 -0.4,0 -0.75,0.25 v 0 l -1.05,0.05 -0.4,-0.05 -0.25,0.1 -0.15,-0.15 q -0.4,0 -0.95,-0.7 -0.55,-0.7 -0.55,-1.4 v 0 q 0,-0.3 0.63,-0.48 0.62,-0.17 1.47,-0.32 0.85,-0.15 1.73,-0.28 0.87,-0.12 1.42,-0.27 v 0 q 0.15,-0.45 0.23,-1.2 0.07,-0.75 0.1,-1.4 0.02,-0.65 0.05,-1.05 0.02,-0.4 0.02,-0.2 v 0 q 0,-0.05 0.1,-0.38 0.1,-0.32 0.23,-0.69 0.12,-0.38 0.22,-0.71 0.1,-0.32 0.1,-0.42 v 0 q -0.05,-0.05 -0.05,-0.15 v 0 q 0,-0.15 0.1,-0.4 0.1,-0.25 0.1,-0.4 v 0 l 0.1,-0.05 q 0.35,0 1.03,0.2 0.67,0.2 1.32,0.52 0.65,0.33 1.15,0.8 0.5,0.48 0.5,1.03 v 0 q 0,0.55 -0.5,1.3 -0.5,0.75 -0.5,1.6 v 0 l -0.3,1.15 q 1.35,0 2.78,-0.13 1.42,-0.12 2.12,-0.12 v 0 q 0.4,0 0.68,0.15 0.27,0.15 0.27,0.7 v 0 z m -10.75,6.95 0.1,1.4 -0.25,0.05 q 0,-0.1 0.03,-0.7 0.02,-0.6 0.12,-0.75 z m 2.3,3 h -0.25 l -0.25,0.55 v 0.5 z m 0,-1 v 0 q -0.2,0 -0.2,0.25 v 0 q 0,0.25 0.2,0.25 v 0 q 0.25,0 0.25,-0.25 v 0 q 0,-0.25 -0.25,-0.25 z M 400.69,0.2 400.44,0 q -0.4,-0.2 -0.5,-0.5 -0.1,-0.3 -0.1,-0.75 v 0 V -2 l 0.85,-8.7 q 0,-0.05 -0.03,-0.08 -0.02,-0.02 -0.02,-0.12 v 0 q 0,0.05 0.05,-0.35 0.05,-0.4 0.15,-0.9 0.1,-0.5 0.2,-0.93 0.1,-0.42 0.2,-0.42 v 0 q 0.1,0 0.37,0.1 0.28,0.1 0.33,0.1 v 0 q 0.55,0.15 1.27,0.27 0.73,0.13 1.4,0.35 0.68,0.23 1.15,0.68 0.48,0.45 0.48,1.25 v 0 l -0.55,1.1 q -0.25,0.5 -0.43,1.02 -0.17,0.53 -0.22,1.03 v 0 q 0,0.05 0,0.32 0,0.28 -0.03,0.65 -0.02,0.38 -0.02,0.78 0,0.4 0,0.7 v 0 0.8 l 0.1,0.1 q 0,0.05 -0.08,0.17 -0.07,0.13 -0.07,0.28 v 0 l 0.05,0.15 q 0,0.05 -0.1,0.1 -0.1,0.05 -0.15,0.05 v 0 l 0.1,0.35 q -0.05,0 -0.05,0.05 v 0 l -0.1,0.15 q 0,-0.05 -0.03,-0.08 -0.02,-0.02 -0.02,-0.07 v 0 l -0.15,-0.05 -0.15,0.1 q -0.05,0.1 -0.1,0.6 -0.05,0.5 -0.15,0.6 v 0 h 0.1 q 0.15,0 0.42,-0.42 0.28,-0.43 0.33,-0.43 v 0 q -0.1,0.55 -0.13,1.27 -0.02,0.73 -0.02,1.28 v 0 l 0.15,0.4 -0.55,-0.15 -0.2,0.15 q -0.1,0 -0.4,0.1 v 0 l -0.2,0.1 -0.75,-0.35 h -0.25 l -0.75,0.35 -0.4,-0.05 V 0.2 Z m -0.05,-17.7 v 0 q 0,-1.05 0.32,-1.85 0.33,-0.8 0.78,-1.7 v 0 l 0.25,0.15 q 0.05,0 0.17,0.07 0.13,0.08 0.28,0.08 v 0 h 1.3 q 0.25,0 0.55,0.35 0.3,0.35 0.4,0.35 v 0 q 0.05,0 0.12,-0.03 0.08,-0.02 0.18,-0.02 v 0 q 0.35,0 0.67,0.22 0.33,0.23 0.55,0.58 0.23,0.35 0.35,0.7 0.13,0.35 0.13,0.65 v 0 q 0,0.35 -0.48,0.75 -0.47,0.4 -1.1,0.72 -0.62,0.33 -1.3,0.55 -0.67,0.23 -1.07,0.23 v 0 q -0.8,0 -1.43,-0.55 -0.62,-0.55 -0.67,-1.25 z m 2.95,14.7 v 0 q 0,0.1 0.02,0.35 0.03,0.25 0.13,0.35 v 0 l 0.1,-0.6 0.25,-0.1 v -0.25 q -0.15,0 -0.33,0.1 -0.17,0.1 -0.17,0.15 z m -0.05,2.55 0.1,0.35 0.4,-0.05 V -0.2 Z m 0.8,0.7 v 0 q 0.15,0.1 0.15,0.25 v 0 q 0,0.2 -0.15,0.2 v 0 q -0.15,0 -0.15,-0.2 v 0 q 0,-0.25 0.15,-0.25 z m 0.55,-4.8 -0.35,0.3 v 0.15 q 0,0.1 0.1,0.1 v 0 l 0.25,-0.25 z m 4.3,-0.65 0.15,-0.35 q 0,-0.1 0.05,-0.18 0.05,-0.07 0.1,-0.17 v 0 l 0.15,-0.15 q 0,-0.7 0.47,-1.75 0.48,-1.05 1.08,-1.45 v 0 l 0.4,-0.2 q 0.1,-0.05 0.1,-0.22 0,-0.18 0.05,-0.28 v 0 l 0.2,-0.25 q 0.4,-0.55 0.9,-1.13 0.5,-0.57 0.97,-1.02 0.48,-0.45 0.88,-0.73 0.4,-0.27 0.7,-0.27 v 0 q 0.1,0 0.17,0.05 0.08,0.05 0.43,0.15 v 0 l 0.55,0.7 q 0.2,0.05 0.35,0.4 v 0 l 0.15,0.35 v 0.8 l 0.15,0.2 q 0.1,0.1 0.15,0.17 0.05,0.08 0.15,0.13 v 0 l 0.6,0.4 q 0.05,0.2 0.3,0.5 0.25,0.3 0.5,0.6 v 0 l 0.7,0.8 q 0.1,0.15 0.2,0.55 0.1,0.4 0.17,0.85 0.08,0.45 0.13,0.82 0.05,0.38 0.05,0.53 v 0 0.4 l -0.45,1.05 -0.05,0.4 -0.5,0.55 -0.75,0.6 q -0.25,0.15 -0.65,0.15 -0.4,0 -0.7,0.25 v 0 l -0.4,0.15 q -0.3,0.2 -0.5,0.2 v 0 q -0.05,0 -0.08,-0.03 -0.02,-0.02 -0.07,-0.02 v 0 l -0.6,0.1 q -0.2,0.15 -0.85,0.15 v 0 q -0.35,0 -0.55,-0.05 v 0 l -1.15,-0.3 -1.15,-0.4 q -0.7,-0.2 -1.08,-0.35 -0.37,-0.15 -0.82,-1 v 0 q -0.1,-0.25 -0.2,-0.5 -0.1,-0.25 -0.2,-0.4 v 0 z m 4.2,0.15 0.05,1.2 0.25,0.05 q 0.4,-0.1 0.95,-0.18 0.55,-0.07 0.8,-0.22 v 0 l 0.5,-0.35 0.4,-0.45 0.15,-0.45 -0.6,-2.3 -0.85,-0.35 -0.15,0.1 q -0.1,0.05 -0.3,0.37 -0.2,0.33 -0.43,0.78 -0.22,0.45 -0.45,0.95 -0.22,0.5 -0.32,0.85 z m -1.55,-3 -0.25,-0.2 q -0.25,0.25 -0.6,0.9 -0.35,0.65 -0.35,1.15 v 0 q 0,0.2 0.05,0.3 v 0 l 0.1,-0.25 0.8,-1.45 q 0.2,-0.3 0.25,-0.45 z m 11.29,2.7 -0.15,-0.75 0.55,-1.35 q 0,-0.1 -0.02,-0.15 -0.03,-0.05 -0.03,-0.15 v 0 q 0,-0.45 0.2,-1.03 0.2,-0.57 0.5,-1.22 0.3,-0.65 0.68,-1.28 0.37,-0.62 0.72,-1.22 v 0 q -0.05,-0.05 -0.05,-0.1 v 0 q 0,-0.2 0.18,-0.38 0.17,-0.17 0.32,-0.17 v 0 q 0.45,0 1,0.2 0.55,0.2 1.03,0.52 0.47,0.33 0.82,0.75 0.35,0.43 0.35,0.93 v 0 l -0.1,0.4 3.9,-1.7 h 0.9 q 0,-0.1 0.13,-0.13 0.12,-0.02 0.17,-0.02 v 0 q 0.3,0 0.43,0.1 0.12,0.1 0.37,0.35 v 0 l 0.6,0.1 q 0.2,0.1 0.63,0.3 0.42,0.2 0.42,0.35 v 0 0.85 h -0.2 l -0.05,0.15 q 0,0.05 0.05,0.05 v 0 h 0.1 q 0.05,0.05 0.1,0.05 v 0 0.15 l -0.1,0.15 q 0,0.4 0.1,0.45 v 0 q 0,0.5 -0.15,1.25 -0.15,0.75 -0.55,1 v 0 h 0.35 q -0.1,0.1 -0.1,0.25 v 0 q 0,0.15 0.05,0.17 0.05,0.03 0.05,0.08 v 0 q 0,0.4 -0.12,0.8 -0.13,0.4 -0.13,0.6 v 0 l -0.2,0.75 q -0.1,0.4 -0.22,0.65 -0.13,0.25 -0.13,0.8 v 0 l 0.1,0.25 q 0,0.15 -0.15,0.4 -0.15,0.25 -0.15,0.5 v 0 q 0,0.5 0.1,0.6 v 0 0.1 l -0.25,0.1 -0.15,0.3 q -0.3,0.1 -0.37,0.17 -0.08,0.08 -0.13,0.1 -0.05,0.03 -0.2,0.05 Q 434.18,0 433.68,0 v 0 q -0.5,0 -0.77,-0.4 -0.28,-0.4 -0.43,-0.93 -0.15,-0.52 -0.17,-1.1 -0.03,-0.57 -0.03,-0.87 v 0 q 0,-0.75 0,-1.28 0,-0.52 0.03,-1 0.02,-0.47 0.07,-1 0.05,-0.52 0.15,-1.27 v 0 q 0,-0.2 -0.07,-0.68 -0.08,-0.47 -0.08,-0.57 v 0 l -0.55,0.2 q -1.15,0.5 -2.3,1.25 -1.15,0.75 -1.35,1.8 v 0 l -0.1,0.45 0.15,0.1 q -0.1,0.25 -0.12,0.37 -0.03,0.13 -0.03,0.58 v 0 l 0.4,-0.3 v 0.05 q 0,0.7 -0.42,1.02 -0.43,0.33 -0.43,0.78 v 0 l 0.35,1.35 -0.1,1.35 h -0.5 q -0.1,0.05 -0.27,0.18 -0.18,0.12 -0.33,0.12 v 0 l -2.4,-0.25 -1.65,-0.8 0.45,-0.6 q -0.1,0.1 -0.15,0.1 v 0 h -0.05 q -0.15,0 -0.2,-0.05 v 0 q 0,-0.25 0.1,-0.35 v 0 l 0.1,0.2 0.85,-0.95 q 0,-0.2 -0.15,-0.3 v 0 q -0.15,0.15 -0.2,0.17 -0.05,0.03 -0.55,0.03 v 0 q 0,-0.5 0.18,-0.83 0.17,-0.32 0.17,-0.57 v 0 h -0.1 q -0.1,0 -0.25,-0.2 v 0 q -0.1,0 -0.17,0.05 -0.08,0.05 -0.13,0.05 v 0 q 0.05,-0.15 0.28,-0.53 0.22,-0.37 0.22,-0.52 z m 0.55,2.05 v 0 q 0.25,0 0.23,-0.23 -0.03,-0.22 0.17,-0.82 v 0 q -0.15,0 -0.3,0.32 -0.15,0.33 -0.15,0.58 v 0 q 0,0.1 0.05,0.15 z m -0.5,-1.2 -0.05,-0.25 h -0.15 v 0.05 q 0,0.05 0.2,0.2 z m 0,0.9 0.1,0.1 v -0.3 q -0.05,0 -0.05,0.05 v 0 q 0,0.05 -0.02,0.07 -0.03,0.03 -0.03,0.08 z m 0.25,-1.5 0.1,0.1 v -0.3 z m 22.25,6.15 v 0 q -0.15,0 -0.42,-0.02 -0.28,-0.03 -0.6,-0.08 -0.33,-0.05 -0.6,-0.12 -0.28,-0.08 -0.43,-0.13 v 0 l -1.2,-0.45 q -0.1,0 -0.4,-0.12 -0.3,-0.13 -1,-0.38 v 0 l -0.65,-0.8 q 0,-0.45 0.5,-0.85 0.5,-0.4 0.9,-0.55 v 0 q 0.05,0 0.28,0.05 0.22,0.05 0.47,0.12 0.25,0.08 0.48,0.13 0.22,0.05 0.27,0.05 v 0 q 0.45,0 1.2,-0.05 0.75,-0.05 1.48,-0.13 0.72,-0.07 1.25,-0.19 0.52,-0.13 0.52,-0.28 v 0 l 0.25,-1.3 q 0,-0.55 -0.35,-0.9 -0.35,-0.35 -0.85,-0.35 v 0 q -0.15,0 -0.25,0.1 v 0 l -1.35,-0.25 h -0.5 q -0.4,0 -1.25,-0.18 -0.85,-0.17 -1.67,-0.52 -0.83,-0.35 -1.45,-0.9 -0.63,-0.55 -0.63,-1.3 v 0 q 0,-0.45 0.13,-0.6 0.12,-0.15 0.32,-0.65 v 0 l -0.15,-0.1 q 0,-0.15 0.13,-0.45 0.12,-0.3 0.3,-0.63 0.17,-0.32 0.32,-0.62 0.15,-0.3 0.2,-0.45 v 0 l 1.75,-1.95 q 0.1,-0.1 0.23,-0.08 0.12,0.03 0.12,-0.07 v 0 l 1.15,-0.75 h 0.25 q 0,0 0.3,-0.1 v 0 l 1.35,-0.25 h 0.45 l 0.1,0.1 q 0.25,0.1 0.53,0.1 0.27,0 0.62,0 v 0 h 0.85 q 0.1,0 0.28,0.27 0.17,0.28 0.27,0.28 v 0 q 0.45,0.3 0.8,0.5 0.35,0.2 0.63,0.42 0.27,0.23 0.42,0.55 0.15,0.33 0.15,0.93 v 0 q 0,0.15 -0.25,0.25 -0.25,0.1 -0.35,0.2 v 0 h -0.9 q -0.05,0 -0.22,0.05 -0.18,0.05 -0.4,0.1 -0.23,0.05 -0.43,0.1 -0.2,0.05 -0.25,0.05 v 0 h -1.85 q -0.1,0.25 -0.57,0.32 -0.48,0.08 -0.73,0.23 v 0 q -0.7,0.4 -0.85,0.87 -0.15,0.48 -0.25,1.18 v 0 q 0.75,0.5 1.78,0.7 1.02,0.2 1.42,0.2 v 0 l 1.35,0.4 q 1.35,0.4 1.88,1.12 0.52,0.73 0.72,1.43 v 0 l 0.15,0.65 v 0.4 q 0,0.2 -0.05,0.35 -0.05,0.15 -0.1,1.15 v 0 l -0.25,0.75 -0.15,0.1 q -0.55,0.75 -0.92,1.18 -0.38,0.42 -1.33,0.57 v 0 q -0.05,0 -0.12,0.1 -0.08,0.1 -0.35,0.2 -0.28,0.1 -0.85,0.2 -0.58,0.1 -1.63,0.1 z m -5.15,-9.65 v 0 q 0,0.45 0.38,0.65 0.37,0.2 0.77,0.2 v 0 l -0.15,-0.55 v -0.1 q 0,-0.35 0.05,-0.4 0.05,-0.05 0.05,-0.45 v 0 q -0.2,0 -0.2,-0.2 v 0 q 0,-0.1 0.1,-0.35 0.1,-0.25 0.2,-0.3 v 0 0.3 q 0.15,0 0.18,-0.25 0.02,-0.25 0.02,-0.4 v 0 q 0,-0.25 -0.1,-0.25 v 0 l -0.1,0.25 v -0.65 h -0.1 q -0.05,0.15 -0.2,0.37 -0.15,0.23 -0.25,0.38 v 0 q -0.1,0.35 -0.12,0.7 -0.03,0.35 -0.18,0.7 v 0 q -0.1,0.25 -0.22,0.2 -0.13,-0.05 -0.13,0.15 z m 3.8,-4.55 h -0.1 q -0.85,0 -1.42,0.67 -0.58,0.68 -0.83,1.48 v 0 0.05 q 0.4,0 0.53,-0.5 0.12,-0.5 0.32,-0.75 v 0 q 0.05,-0.05 0.25,-0.15 0.2,-0.1 0.45,-0.25 0.25,-0.15 0.48,-0.28 0.22,-0.12 0.32,-0.27 z"
                                   opacity="1"
                                   fill="#fafafa"
                                   class="slogan-text-1"
                                   data-fill-palette-color="quaternary"
                                   id="text-1" /></svg></g></svg></g></svg></g></svg></g><g
                           transform="translate(50.930295)"
                           id="g15"><svg
                             viewBox="0 0 111.29785 148.33765"
                             height="148.33765"
                             width="111.29785"
                             version="1.1"
                             id="svg14"><g
                               id="g14"><svg
                                 viewBox="8.9919119 2 42.016842 56"
                                 x="0"
                                 y="0"
                                 height="148.33765"
                                 width="111.29785"
                                 class="icon-icon-0"
                                 data-fill-palette-color="quaternary"
                                 id="icon-0"
                                 version="1.1"
                                 style="display:inline"><path
                                   d="m 43.021,45.8 0.568,2.848 c 0.847,0.087 1.713,0.2 2.6,0.369 a 1,1 0 1 1 -0.369,1.964 29,29 0 0 0 -3.154,-0.42 c -5.741,-0.434 -9.717,1.172 -13.536,3.208 2.569,0.533 4.754,1.2 6.883,1.856 A 45.6,45.6 0 0 0 47.36,57.991 3.17,3.17 0 0 0 49.772,57.051 4.33,4.33 0 0 0 51,53.746 41.3,41.3 0 0 0 49.856,45.279 Z"
                                   fill="#fafafa"
                                   data-fill-palette-color="quaternary"
                                   id="path7" /><path
                                   d="m 18.06,15.079 a 0.23,0.23 0 0 0 -0.057,0.19 l 0.549,4.356 A 1.565,1.565 0 0 0 20.1,21 h 4.2 a 3.78,3.78 0 0 0 3.311,-1.647 2.784,2.784 0 0 1 4.776,0 A 3.78,3.78 0 0 0 35.7,21 h 4.2 a 1.565,1.565 0 0 0 1.548,-1.373 L 42,15.268 A 0.24,0.24 0 0 0 41.942,15.079 0.23,0.23 0 0 0 41.76,15 H 33.742 A 2.8,2.8 0 0 0 32.148,15.463 3.77,3.77 0 0 1 30,16 3.75,3.75 0 0 1 27.854,15.458 2.8,2.8 0 0 0 26.266,15 H 18.24 a 0.23,0.23 0 0 0 -0.18,0.079"
                                   fill="#fafafa"
                                   data-fill-palette-color="quaternary"
                                   id="path8"
                                   style="fill:#ff694a;fill-opacity:1;stroke-width:0.999513;stroke-dasharray:none" /><path
                                   d="m 17.477,49.96 c -1.869,0.259 -3.083,0.532 -3.1,0.535 a 1,1 0 0 1 -0.223,0.025 1,1 0 0 1 -0.221,-1.976 c 0.047,-0.01 1.01,-0.228 2.564,-0.463 l 0.47,-2.281 -6.816,-0.52 a 41.4,41.4 0 0 0 -1.15,8.467 4.32,4.32 0 0 0 1.222,3.3 3.2,3.2 0 0 0 2.423,0.945 c 5.436,-0.345 9.292,-2.509 13.023,-4.6 l 0.129,-0.073 A 54,54 0 0 1 31.535,50.4 C 26.682,49.035 20.837,49.5 17.477,49.96"
                                   fill="#fafafa"
                                   data-fill-palette-color="quaternary"
                                   id="path9" /><path
                                   d="M 26.266,13 A 4.76,4.76 0 0 1 28.989,13.812 1.86,1.86 0 0 0 30,14 1.9,1.9 0 0 0 31.018,13.813 4.8,4.8 0 0 1 33.742,13 H 41 a 11,11 0 0 0 -22,0 z"
                                   fill="#fafafa"
                                   data-fill-palette-color="quaternary"
                                   id="path10" /><path
                                   d="M 36.944,58 Q 36.185,57.772 35.423,57.538 A 61,61 0 0 0 26.35,55.3 52,52 0 0 1 21,58 Z"
                                   fill="#fafafa"
                                   data-fill-palette-color="quaternary"
                                   id="path11"
                                   style="fill:#ff694a;fill-opacity:1" /><path
                                   d="m 37.159,27.582 a 6,6 0 0 0 2.565,-3.989 L 39.824,23 H 35.7 a 5.78,5.78 0 0 1 -5.032,-2.628 0.818,0.818 0 0 0 -1.334,0 A 5.78,5.78 0 0 1 24.3,23 h -4.123 l 0.1,0.595 a 6,6 0 0 0 2.56,3.984 c 0.27,0.184 0.554,0.383 0.852,0.594 C 25.471,29.433 27.688,31 30,31 c 2.312,0 4.529,-1.567 6.312,-2.827 0.298,-0.211 0.582,-0.41 0.847,-0.591"
                                   fill="#fafafa"
                                   data-fill-palette-color="quaternary"
                                   id="path12" /><path
                                   d="m 25.191,31.536 -0.154,1.229 C 26.423,34.854 28.176,36 30,36 c 1.824,0 3.577,-1.146 4.963,-3.235 L 34.809,31.536 A 9.9,9.9 0 0 1 30,33 9.9,9.9 0 0 1 25.191,31.536"
                                   fill="#fafafa"
                                   data-fill-palette-color="quaternary"
                                   id="path13" /><path
                                   d="m 41.247,42.02 a 1,1 0 0 1 1.176,0.785 l 0.2,1.02 7.211,-0.55 A 5,5 0 0 0 50,42 C 50,37.219 40.741,34.757 36.466,34.08 34.72,36.6 32.447,38 30,38 27.553,38 25.28,36.6 23.531,34.081 19.255,34.758 10,37.22 10,42 a 5,5 0 0 0 0.168,1.275 l 3.7,0.283 c 1.6,0.122 2.711,0.207 3.5,0.293 l 0.213,-1.05 a 1.0006899,1.0006899 0 0 1 1.961,0.4 l -0.378,1.864 v 0.028 L 18.6,47.805 c 4.274,-0.475 10.906,-0.683 15.93,1.551 A 23.4,23.4 0 0 1 41.52,48.5 L 40.839,45.087 40.462,43.2 a 1,1 0 0 1 0.785,-1.18"
                                   fill="#fafafa"
                                   data-fill-palette-color="quaternary"
                                   id="path14"
                                   style="fill:#ff694a;fill-opacity:1" /></svg></g></svg></g><g
                           id="g16" /></svg></g></svg></g></svg></g></svg></g><defs
           id="defs20" /></svg><rect
         width="333.90454"
         height="333.90454"
         fill="none"
         stroke="none"
         visibility="hidden"
         id="rect20"
         x="0"
         y="0" /></g></g></svg>
